<svg width="56" height="109" viewBox="0 0 56 109" fill="none" xmlns="http://www.w3.org/2000/svg">
<mask id="mask0_568_80" style="mask-type:luminance" maskUnits="userSpaceOnUse" x="0" y="0" width="56" height="109">
<path d="M55.6983 101.031L29.8066 0L0.882364 7.41256L26.7741 108.444L55.6983 101.031Z" fill="white"/>
</mask>
<g mask="url(#mask0_568_80)">
<path d="M25.6215 61.4772C25.8956 61.8841 26.3534 62.5513 26.9353 63.3712C27.5316 64.1902 28.2422 65.17 29.0014 66.2136C30.5404 68.3014 32.2335 70.7272 33.396 72.7506C34.7555 75.0745 35.8893 77.6028 36.4974 80.3069L36.6097 80.8136C36.6472 80.9827 36.6654 81.1564 36.6939 81.3247L36.8485 82.3507C36.9124 82.6914 36.9138 83.0395 36.9406 83.3838L37.0038 84.4185L36.9851 85.4535C36.9706 85.7969 36.9864 86.144 36.9396 86.4869L36.837 87.5141C36.816 87.6833 36.8081 87.8582 36.7781 88.0269L36.6883 88.5329C36.2407 91.2409 35.3455 93.8355 34.1776 96.2686C32.9973 98.6991 31.5439 100.965 29.9272 103.086C29.4318 103.757 28.719 104.631 28.0841 105.282C27.4309 105.921 26.8655 106.341 26.642 106.109C26.1687 105.609 27.124 104.003 28.7887 101.75C30.7952 99.0146 32.541 96.0616 33.7252 92.8926C33.8886 92.5023 34.0045 92.0979 34.1355 91.6956C34.2611 91.2946 34.4018 90.8956 34.4922 90.483C34.5923 90.074 34.6992 89.6689 34.7903 89.2592L35.0051 88.0187C35.2334 86.3621 35.3039 84.6843 35.1106 83.039C34.8584 80.6273 34.0793 78.3068 33.0347 76.104C31.9833 73.8971 30.6368 71.8184 29.2129 69.7801C27.7835 67.7435 26.2485 65.7513 24.7906 63.6718C23.341 61.5904 21.9399 59.4352 20.8278 57.0945C20.3334 56.0445 19.8778 54.9641 19.524 53.8459C19.1728 52.727 18.8986 51.5767 18.7299 50.4052C18.5772 49.2149 18.5585 48.0108 18.6607 46.8224C18.7837 45.6348 19.0333 44.4614 19.4 43.3225C19.7798 42.189 20.2988 41.0959 20.9405 40.0708C21.5824 39.0458 22.4029 38.1242 23.3383 37.3312C23.5827 37.1429 23.8105 36.9351 24.0688 36.7665L24.8519 36.2702C25.4038 35.9911 25.9543 35.6948 26.5503 35.5189C27.7196 35.0903 28.9594 34.9481 30.1552 34.9315C31.2858 34.9228 32.3923 35.0374 33.4716 35.2055C34.0127 35.2952 34.5303 35.3734 35.1185 35.5213C35.6854 35.6658 36.2394 35.8516 36.7787 36.1056C37.3173 36.3568 37.8465 36.6631 38.3393 37.0784C38.8252 37.4896 39.3002 38.0293 39.5589 38.7534C39.691 39.109 39.7455 39.5046 39.7362 39.8906C39.7359 40.0838 39.6923 40.2678 39.6638 40.4535C39.6326 40.6401 39.5573 40.8144 39.4986 40.9964C39.4391 41.1755 39.3239 41.3427 39.2327 41.5124C39.1319 41.6786 38.9959 41.8218 38.8709 41.9739C38.7363 42.1108 38.5857 42.2315 38.4385 42.3541C38.2851 42.452 38.1268 42.554 37.9677 42.6414C37.3253 42.9671 36.6699 43.0941 36.0472 43.1425C35.423 43.1855 34.8175 43.1416 34.2248 43.0445C33.6376 42.9462 33.0473 42.7901 32.4945 42.5747C31.9857 42.3598 31.4674 42.1648 30.9688 41.9325C28.9621 41.0126 27.0743 39.8367 25.3606 38.4492C22.4003 36.0584 19.9583 33.0398 18.2362 29.6555C16.5052 26.2705 15.5636 22.5046 15.4004 18.7382C15.3122 16.9665 15.2892 14.8093 15.6168 12.8783C15.6507 12.6793 15.6859 12.4625 15.7238 12.2333C15.7616 12.004 15.8214 11.7692 15.875 11.5213C15.9292 11.2761 15.9869 11.0214 16.0431 10.7611C16.1028 10.5028 16.1831 10.2451 16.2545 9.98677C16.3286 9.72777 16.4027 9.46876 16.4755 9.21593C16.5607 8.96579 16.6473 8.72115 16.7298 8.48339C16.815 8.24493 16.8942 8.01683 16.9733 7.80041C17.0629 7.59014 17.149 7.38952 17.2277 7.20542C17.3696 6.89099 17.4997 6.56494 17.6526 6.24769C17.8061 5.93318 17.9535 5.61734 18.0844 5.30571C18.226 4.94452 18.4016 4.63607 18.5458 4.35326C18.6961 4.07178 18.8246 3.81933 18.9581 3.60947C19.2321 3.19385 19.4567 2.90506 19.6352 2.74514C19.9916 2.42256 20.1599 2.6107 20.2082 3.23348C20.2311 3.50569 20.5387 3.40346 20.2648 4.07078C20.2539 4.09698 20.2302 4.15283 20.2221 4.17832C20.0415 4.69586 19.8671 5.21474 19.6458 5.71051C19.4611 6.22327 19.2357 6.71424 19.0289 7.22093C18.6237 8.23221 18.1971 9.25185 17.9222 10.3263C16.5068 15.5627 16.7191 21.2571 18.6903 26.2987C20.6669 31.3392 24.3128 35.7087 28.8785 38.6074C30.277 39.4958 31.7684 40.2552 33.3055 40.8507C34.0113 41.1148 34.7879 41.267 35.5321 41.2812C35.9014 41.2831 36.265 41.2514 36.5975 41.1779C36.9216 41.0948 37.2083 40.9686 37.4205 40.8031C37.6327 40.6374 37.7725 40.4407 37.8452 40.1761C37.9214 39.9137 37.9336 39.6529 37.8635 39.4134C37.7093 38.9259 37.2084 38.4104 36.5645 38.0456C35.9316 37.6662 35.1839 37.3983 34.4354 37.2302L34.151 37.1713L33.8412 37.1159L33.2237 37.0137C32.8121 36.9494 32.404 36.899 31.998 36.8565C30.2123 36.6849 28.4622 36.8232 26.8776 37.3901L26.9044 37.3804C26.088 37.7125 25.31 38.1489 24.6416 38.739C24.2848 39.003 23.9939 39.3528 23.6718 39.6606L23.2437 40.1832C23.1727 40.2715 23.0976 40.3552 23.03 40.4457L22.4743 41.2584L22.1565 41.8229L21.9951 42.1071L21.858 42.4058L21.583 43.0003C21.2687 43.8184 20.98 44.6563 20.8235 45.5306C20.6327 46.3963 20.565 47.2858 20.5399 48.1703C20.559 48.6104 20.5383 49.0549 20.5979 49.4933L20.6638 50.1495L20.8305 51.1431L20.9059 51.4721L21.0536 52.1278C21.1848 52.5596 21.2849 52.9965 21.4375 53.42L21.6538 54.0583L21.8967 54.6868C22.0512 55.1067 22.2469 55.5161 22.4227 55.9278C23.1694 57.5628 24.0706 59.1144 25.0181 60.6075C25.1598 60.8404 25.3967 61.1368 25.6215 61.4772Z" fill="#C4F45E"/>
<path d="M31.547 104.944C31.7393 104.935 32.4209 104.912 32.8546 104.849C33.8576 104.712 34.8439 104.521 35.8687 104.429C36.0284 104.414 36.2893 104.345 36.4426 104.883C36.6015 105.443 36.5095 105.822 36.2179 105.881C35.5087 106.017 34.7826 106.037 34.1015 106.253C33.0968 106.571 32.0415 106.594 31.004 106.655C30.5344 106.679 30.0677 106.683 29.5978 106.665C29.3636 106.659 29.1299 106.645 28.895 106.636C28.6551 106.618 28.442 106.614 28.1728 106.591C27.9347 106.57 27.6733 106.537 27.3779 106.442C27.2296 106.393 27.0743 106.325 26.9213 106.227C26.7687 106.13 26.6141 105.996 26.4912 105.846C26.2105 105.498 26.1019 105.094 26.0658 104.784C26.0266 104.462 26.0419 104.202 26.0573 103.973C26.1165 103.186 26.378 102.431 26.6056 101.693C26.6579 101.518 26.6121 101.279 26.6758 101.089C26.7271 100.93 26.8134 100.668 26.9097 100.526C26.9526 100.464 27.0016 100.405 27.0036 100.333C27.0202 99.9991 27.2389 99.9943 27.8035 100.312C27.929 100.382 28.1099 100.42 28.1765 100.521C28.1802 100.525 28.1851 100.534 28.1886 100.538C28.48 100.867 28.2455 101.009 28.1898 101.22C27.9213 102.248 27.7444 103.313 27.7132 104.359C27.7007 104.659 27.7529 104.853 27.7896 104.877C27.8108 104.899 27.8361 104.918 27.9095 104.945C27.9823 104.97 28.0864 104.987 28.2148 104.99C28.3567 104.995 28.5202 104.924 28.7051 104.987L28.702 104.985C28.8948 104.979 29.0888 104.958 29.2773 104.966C29.9991 105.008 30.7525 104.956 31.447 104.972C31.4704 104.974 31.5069 104.946 31.547 104.944Z" fill="#C4F45E"/>
</g>
</svg>
