<svg xmlns="http://www.w3.org/2000/svg" version="1.1" xmlns:xlink="http://www.w3.org/1999/xlink" width="512" height="512" x="0" y="0" viewBox="0 0 512 512" style="enable-background:new 0 0 512 512" xml:space="preserve"><g><path d="M121.621 232.043H94.112v-22.362h27.509Zm197.5 165.389h-27.478v22.332h27.479Zm0-93.86h-27.478V325.9h27.479Zm-197.5 0H94.112V325.9h27.509Zm98.735 0h-27.479V325.9h27.479Zm0-93.891h-27.479v22.362h27.479Zm0 187.751h-27.479v22.332h27.479Zm202.049 92.559H42.755a33.2 33.2 0 0 1-17.005-4.661A17.427 17.427 0 0 0 42.755 499h426.52a17.392 17.392 0 0 0 17.372-17.373v-52.564l-58.585 58.584a8 8 0 0 1-5.657 2.344Zm-103.283-280.31h-27.479v22.362h27.479ZM469.271 56.69h-61.63V32.48c0-10.92-11.5-19.48-26.171-19.48-14.7 0-26.2 8.56-26.2 19.48v24.21h16v-24.1c.47-1.04 4.14-3.59 10.2-3.59 6.03 0 9.69 2.55 10.17 3.59v24.1h-20.37V84.2c.49 1.05 4.171 3.61 10.2 3.61a8 8 0 1 1 0 16c-14.7 0-26.2-8.56-26.2-19.48V56.69H282.2V32.48C282.2 21.56 270.69 13 256 13s-26.2 8.56-26.2 19.48v24.21h16V32.6c.48-1.05 4.16-3.6 10.2-3.6s9.71 2.55 10.2 3.6v24.09h-20.4V84.2c.5 1.05 4.18 3.61 10.2 3.61a8 8 0 0 1 0 16c-14.69 0-26.2-8.56-26.2-19.48V56.69h-73.04V32.48c0-10.92-11.511-19.48-26.2-19.48s-26.2 8.56-26.2 19.48v24.21h16V32.6c.489-1.05 4.17-3.6 10.2-3.6s9.721 2.55 10.2 3.6v24.09h-20.4V84.2c.5 1.05 4.19 3.61 10.2 3.61a8 8 0 0 1 0 16c-14.69 0-26.2-8.56-26.2-19.48V56.69h-61.6a17.427 17.427 0 0 0-17.41 17.4v56.31h461.3V74.09a17.415 17.415 0 0 0-17.379-17.4ZM25.352 146.4h461.3v255.349h-64.247a8 8 0 0 0-8 8v64.242H42.755a17.423 17.423 0 0 1-17.4-17.4Zm408.535 149.172a8 8 0 0 0-8-8h-43.479a8 8 0 0 0-8 8V333.9a8 8 0 0 0 8 8h43.479a8 8 0 0 0 8-8Zm-58.327-69.715 17.56 17.44a8 8 0 0 0 5.638 2.324c.115 0 .231 0 .346-.008a8 8 0 0 0 5.761-2.824l28.34-33.487a8 8 0 1 0-12.213-10.336l-22.744 26.873-11.413-11.339a8 8 0 0 0-11.275 11.353Zm-99.917 14.186a8 8 0 0 0 8 8h43.479a8 8 0 0 0 8-8v-38.362a8 8 0 0 0-8-8h-43.479a8 8 0 0 0-8 8Zm0 93.86a8 8 0 0 0 8 8h43.479a8 8 0 0 0 8-8v-38.331a8 8 0 0 0-8-8h-43.479a8 8 0 0 0-8 8Zm0 93.861a8 8 0 0 0 8 8h43.479a8 8 0 0 0 8-8v-38.332a8 8 0 0 0-8-8h-43.479a8 8 0 0 0-8 8Zm-98.766-187.721a8 8 0 0 0 8 8h43.479a8 8 0 0 0 8-8v-38.362a8 8 0 0 0-8-8h-43.479a8 8 0 0 0-8 8Zm0 93.86a8 8 0 0 0 8 8h43.479a8 8 0 0 0 8-8v-38.331a8 8 0 0 0-8-8h-43.479a8 8 0 0 0-8 8Zm0 93.861a8 8 0 0 0 8 8h43.479a8 8 0 0 0 8-8v-38.332a8 8 0 0 0-8-8h-43.479a8 8 0 0 0-8 8ZM78.112 240.043a8 8 0 0 0 8 8h43.509a8 8 0 0 0 8-8v-38.362a8 8 0 0 0-8-8H86.112a8 8 0 0 0-8 8Zm0 93.86a8 8 0 0 0 8 8h43.509a8 8 0 0 0 8-8v-38.331a8 8 0 0 0-8-8H86.112a8 8 0 0 0-8 8Zm0 93.861a8 8 0 0 0 8 8h43.509a8 8 0 0 0 8-8v-38.332a8 8 0 0 0-8-8H86.112a8 8 0 0 0-8 8Zm352.293 34.913 44.929-44.928h-44.929Zm-308.784-65.245H94.112v22.332h27.509ZM390.408 325.9h27.479v-22.328h-27.479Z" fill="#81A63D" opacity="1" data-original="#000000"></path></g></svg>