<svg xmlns="http://www.w3.org/2000/svg" version="1.1" xmlns:xlink="http://www.w3.org/1999/xlink" width="512" height="512" x="0" y="0" viewBox="0 0 512 512" style="enable-background:new 0 0 512 512" xml:space="preserve" class=""><g><path d="M399.072 299.247c-28.896 0-52.403 23.508-52.403 52.403s23.508 52.403 52.403 52.403 52.403-23.508 52.403-52.403-23.508-52.403-52.403-52.403zM399.072 434.053a81.884 81.884 0 0 1-33.599-7.19v44.003l33.599-10.949 33.599 10.949v-44.003a81.887 81.887 0 0 1-33.599 7.19z" fill="#81A63D" opacity="1" data-original="#000000"></path><path d="M0 41.134v388.334h335.473V403.99c-11.743-14.243-18.804-32.482-18.804-52.34 0-45.437 36.966-82.403 82.403-82.403s82.403 36.966 82.403 82.403c0 19.858-7.062 38.097-18.804 52.34v25.478H512V41.134H0zm256 249.419H69.336v-30H256v30zm186.664-78.542H69.336v-30h373.328v30zm0-78.542H69.336v-30h373.328v30z" fill="#81A63D" opacity="1" data-original="#000000"></path></g></svg>