<svg xmlns="http://www.w3.org/2000/svg" version="1.1" xmlns:xlink="http://www.w3.org/1999/xlink" width="512" height="512" x="0" y="0" viewBox="0 0 64 64" style="enable-background:new 0 0 512 512" xml:space="preserve"><g><path d="M59.96 60.52H4.04C1.81 60.52 0 58.71 0 56.48V7.52c0-2.23 1.81-4.04 4.04-4.04h14.29c.67 0 1.28.3 1.69.82l3.57 4.56c.04.05.1.08.16.08h36.22c2.23 0 4.04 1.81 4.04 4.04v43.5a4.057 4.057 0 0 1-4.05 4.04zM4.04 5.42a2.1 2.1 0 0 0-2.1 2.1v48.96c0 1.16.94 2.1 2.1 2.1h55.93a2.1 2.1 0 0 0 2.1-2.1v-43.5a2.1 2.1 0 0 0-2.1-2.1H23.75c-.66 0-1.28-.3-1.69-.82L18.49 5.5a.209.209 0 0 0-.16-.08z" fill="#81A63D" opacity="1" data-original="#000000"></path><path d="M63.03 19.75H.97c-.54 0-.97-.43-.97-.97s.43-.97.97-.97h62.06c.54 0 .97.43.97.97s-.43.97-.97.97zM47.13 46.93c-3.01 0-5.46-2.43-5.46-5.41V37c0-2.98 2.45-5.41 5.46-5.41 1.71 0 3.35.81 4.37 2.18l.18.23a.971.971 0 0 1-1.55 1.17l-.17-.23c-.66-.88-1.72-1.4-2.82-1.4-1.94 0-3.52 1.56-3.52 3.47v4.52c0 1.91 1.58 3.47 3.52 3.47 1.11 0 2.16-.52 2.82-1.4l.17-.23a.971.971 0 0 1 1.55 1.17l-.17.23a5.528 5.528 0 0 1-4.38 2.16zM16.25 47.01H13.1c-.54 0-.97-.43-.97-.97V32.48c0-.54.43-.97.97-.97h3.15c4.31 0 7.82 3.48 7.82 7.75s-3.51 7.75-7.82 7.75zm-2.18-1.93h2.18c3.24 0 5.88-2.61 5.88-5.81 0-3.21-2.64-5.81-5.88-5.81h-2.18zM32.44 47.01c-3.5 0-6.34-2.85-6.34-6.34v-2.82c0-3.5 2.85-6.34 6.34-6.34s6.34 2.85 6.34 6.34v2.82c0 3.5-2.84 6.34-6.34 6.34zm0-13.56c-2.43 0-4.41 1.98-4.41 4.4v2.82c0 2.43 1.98 4.41 4.41 4.41s4.4-1.98 4.4-4.41v-2.82c0-2.42-1.97-4.4-4.4-4.4z" fill="#81A63D" opacity="1" data-original="#000000"></path></g></svg>