<svg xmlns="http://www.w3.org/2000/svg" version="1.1" xmlns:xlink="http://www.w3.org/1999/xlink" width="512" height="512" x="0" y="0" viewBox="0 0 500 500" style="enable-background:new 0 0 512 512" xml:space="preserve" class=""><g><path fill-rule="evenodd" d="M250.232 21.497c20.666 0 39.375 8.377 52.919 21.92 13.543 13.543 21.921 32.253 21.921 52.919s-8.377 39.376-21.921 52.919-32.253 21.92-52.919 21.92c-20.665 0-39.376-8.377-52.919-21.92s-21.92-32.253-21.92-52.919c0-20.665 8.377-39.376 21.92-52.919s32.253-21.92 52.919-21.92zm-87.783 366.769v-9.902a.251.251 0 0 0-.078-.174.246.246 0 0 0-.173-.078h-31.825c-.067 0-.127.031-.174.078s-.078.107-.078.174v9.901c0 .511.416.927.927.927h30.475a.927.927 0 0 0 .926-.926zm-23.58 48.072v9.307a7.415 7.415 0 0 0 14.831 0v-9.307c0-.353.183-.655.495-.82l53.22-28.045a.905.905 0 0 1 .911.026c.286.173.448.46.448.794v62.87c0 1.95-.781 3.806-2.158 5.183a7.325 7.325 0 0 1-5.182 2.158H91.135c-1.95 0-3.805-.781-5.182-2.158s-2.158-3.233-2.158-5.183v-62.87c0-.334.162-.621.448-.794a.905.905 0 0 1 .911-.026l53.221 28.045a.908.908 0 0 1 .494.82zm-26.678-48.072v-9.901c0-4.835 1.914-9.433 5.33-12.85a18.132 18.132 0 0 1 12.85-5.331h31.825c4.834 0 9.432 1.914 12.849 5.331s5.331 8.015 5.331 12.85v9.902c0 .511.416.927.927.927h20.229c2.895.036 5.401 1.752 6.614 4.384l.31.678a.927.927 0 0 1-.411 1.205l-52.986 27.925a.905.905 0 0 1-.911-.026.906.906 0 0 1-.448-.794v-4.238c0-4.096-3.32-7.415-7.416-7.415s-7.415 3.32-7.415 7.415v4.238a.906.906 0 0 1-.448.794.905.905 0 0 1-.911.026l-52.983-27.919a.925.925 0 0 1-.414-1.198l.338-.757.011-.023.095-.197c.062-.126.129-.249.198-.371l.062-.108.014-.023.066-.107.008-.014.078-.122a6.45 6.45 0 0 1 .251-.361l.053-.071.011-.014.109-.14c.136-.171.28-.336.432-.492l.104-.107a7.268 7.268 0 0 1 1.118-.923l.131-.086.076-.048.017-.011.126-.076a.086.086 0 0 0 .016-.01l.136-.078a.267.267 0 0 1 .023-.013l.137-.074.077-.04a.366.366 0 0 1 .019-.01l.138-.068a.186.186 0 0 0 .02-.01l.144-.067.017-.008.073-.032.015-.006.145-.061.016-.007.14-.056a.146.146 0 0 1 .019-.007l.077-.029.017-.006.148-.052.022-.008.146-.047a.187.187 0 0 1 .022-.007l.148-.044.021-.006.157-.043.024-.006.155-.038.022-.005.151-.033.023-.005.157-.03a.217.217 0 0 1 .025-.004l.159-.026.022-.003.16-.022.026-.003.156-.018.017-.002.168-.016.03-.002.158-.01.024-.001.171-.006h.02l.162-.002h20.13a.934.934 0 0 0 .927-.931zm138.041-144.58c20.392 0 36.922 16.53 36.922 36.922 0 20.391-16.53 36.922-36.922 36.922-20.391 0-36.922-16.531-36.922-36.922 0-20.392 16.53-36.922 36.922-36.922zm124.073 13.074c8.155 7.099 9.022 19.576 1.931 27.734l-.016.018-59.481 72.158c-7.029 8.528-10.44 18.029-10.44 29.08v78.018c0 8.104-6.631 14.735-14.736 14.735h-70.489a.9.9 0 0 1-.75-.383.9.9 0 0 1-.13-.833c.641-1.959.978-4.023.978-6.125v-68.579c0-.019 0-.035-.002-.054-.706-12.09-1.268-23.305-16.956-25.538-2.452-.349-7.107-.245-10.088-.206a.92.92 0 0 1-.92-.739 42.98 42.98 0 0 0-1.22-4.598l-.021-.075a30.547 30.547 0 0 0-8.152-14.624l-.091-.09a.708.708 0 0 1-.064-.07l-59.414-72.076-.016-.018c-7.091-8.158-6.224-20.635 1.931-27.734 8.158-7.102 20.644-6.238 27.745 1.921l61.844 71.043c8.994 10.332 20.785 15.7 34.483 15.7 13.699 0 25.489-5.368 34.483-15.7l61.844-71.043c7.103-8.159 19.589-9.023 27.747-1.922zm-262.489-83.927a6.489 6.489 0 1 1 0 12.978H89.609a6.489 6.489 0 0 1-6.489-6.489V152.2a6.489 6.489 0 1 1 12.978 0v19.706c0 .511.416.927.927.927zm-15.717-42.965v3.724a6.489 6.489 0 1 1-12.978 0v-3.724c0-.279-.11-.52-.322-.702a.899.899 0 0 0-.742-.215c-11.041 1.641-20.925 6.826-28.459 14.36s-12.719 17.418-14.36 28.459c-.041.276.033.53.215.742s.423.322.702.322h3.724a6.489 6.489 0 1 1 0 12.978h-3.724c-.279 0-.52.11-.702.322a.899.899 0 0 0-.215.742c1.641 11.041 6.826 20.925 14.36 28.459s17.418 12.718 28.459 14.36c.276.041.53-.033.742-.215s.322-.423.322-.702v-3.724a6.489 6.489 0 1 1 12.978 0v3.724c0 .279.11.52.322.702s.465.256.742.215c11.041-1.641 20.925-6.826 28.459-14.36s12.719-17.419 14.36-28.459c.041-.276-.033-.53-.215-.742s-.423-.322-.702-.322h-3.724a6.489 6.489 0 1 1 0-12.978h3.724c.279 0 .52-.11.702-.322a.899.899 0 0 0 .215-.742c-1.641-11.041-6.826-20.925-14.36-28.459s-17.418-12.718-28.459-14.36c-.276-.041-.53.033-.742.215s-.322.422-.322.702zm172.174-70.575-23.339 33.341a6.464 6.464 0 0 0 .425 7.947l.025.03 13.14 16.425a6.457 6.457 0 1 0 10.089-8.061l-9.882-12.352a.916.916 0 0 1-.035-1.111l20.173-28.818a6.463 6.463 0 1 0-10.596-7.401zm-78.527 30.553h6.634a6.489 6.489 0 1 1 0 12.978h-6.634a.898.898 0 0 0-.694.312.9.9 0 0 0-.226.726c1.707 14.074 8.14 26.691 17.664 36.215s22.141 15.956 36.215 17.663a.897.897 0 0 0 .726-.226.896.896 0 0 0 .312-.694v-6.634a6.489 6.489 0 1 1 12.978 0v6.634c0 .275.106.511.312.694a.9.9 0 0 0 .726.226c14.074-1.707 26.691-8.139 36.215-17.663s15.956-22.141 17.663-36.215a.897.897 0 0 0-.226-.726.896.896 0 0 0-.694-.312h-6.634a6.489 6.489 0 1 1 0-12.978h6.634a.898.898 0 0 0 .694-.312.9.9 0 0 0 .226-.726c-1.707-14.073-8.139-26.691-17.663-36.215s-22.141-15.956-36.215-17.663a.897.897 0 0 0-.726.226.896.896 0 0 0-.312.694v6.633a6.489 6.489 0 1 1-12.978 0V35.85a.898.898 0 0 0-.312-.694.9.9 0 0 0-.726-.226c-14.073 1.707-26.691 8.139-36.215 17.663s-15.956 22.141-17.663 36.215a.897.897 0 0 0 .226.726.893.893 0 0 0 .693.312zM89.609 114.488c-17.902 0-34.111 7.257-45.844 18.99s-18.99 27.941-18.99 45.844 7.257 34.111 18.99 45.844c11.732 11.733 27.941 18.99 45.844 18.99 17.902 0 34.111-7.257 45.844-18.99 11.733-11.732 18.99-27.941 18.99-45.844 0-17.902-7.257-34.111-18.99-45.844-11.733-11.732-27.941-18.99-45.844-18.99zm296.183 40.3a6.463 6.463 0 0 1 10.596-7.402l19.764 28.234a6.464 6.464 0 0 1-.45 7.977l-11.097 13.871a6.457 6.457 0 1 1-10.089-8.061l7.839-9.799a.917.917 0 0 0 .036-1.111zm-24.861 18.045h4.192a6.489 6.489 0 1 1 0 12.978h-4.192a.9.9 0 0 0-.702.321.902.902 0 0 0-.216.741c1.645 11.169 6.882 21.17 14.501 28.788 7.618 7.618 17.619 12.856 28.788 14.5.276.041.53-.033.741-.215s.321-.423.321-.702v-4.193a6.489 6.489 0 1 1 12.978 0v4.193a.9.9 0 0 0 .321.702.898.898 0 0 0 .741.215c11.169-1.645 21.17-6.882 28.788-14.5s12.856-17.619 14.501-28.788a.895.895 0 0 0-.216-.741.899.899 0 0 0-.702-.321h-4.193a6.489 6.489 0 1 1 0-12.978h4.193a.9.9 0 0 0 .702-.321.902.902 0 0 0 .216-.741c-1.645-11.169-6.882-21.17-14.501-28.788-7.618-7.618-17.619-12.856-28.788-14.501a.895.895 0 0 0-.741.216.899.899 0 0 0-.321.702v4.192a6.489 6.489 0 1 1-12.978 0V129.4a.9.9 0 0 0-.321-.702.902.902 0 0 0-.741-.216c-11.169 1.645-21.17 6.882-28.788 14.501-7.618 7.618-12.856 17.619-14.501 28.788-.041.276.033.53.216.741s.423.321.702.321zm49.923-57.881c-17.774 0-33.867 7.206-45.516 18.854-11.649 11.649-18.854 27.741-18.854 45.516 0 17.774 7.205 33.867 18.854 45.516 11.648 11.649 27.742 18.854 45.516 18.854s33.867-7.205 45.516-18.854 18.854-27.742 18.854-45.516-7.206-33.867-18.854-45.516c-11.649-11.648-27.742-18.854-45.516-18.854z" clip-rule="evenodd" fill="#81A63D" opacity="1" data-original="#000000"></path></g></svg>