<svg xmlns="http://www.w3.org/2000/svg" version="1.1" xmlns:xlink="http://www.w3.org/1999/xlink" width="512" height="512" x="0" y="0" viewBox="0 0 32 32" style="enable-background:new 0 0 512 512" xml:space="preserve" class=""><g><path d="M16 2H3a1 1 0 0 0-1 1v26a1 1 0 0 0 1 1h13a1 1 0 0 0 1-1V3a1 1 0 0 0-1-1zm-1 26H4V4h11zM29 2h-9a1 1 0 0 0-1 1v11a1 1 0 0 0 1 1h9a1 1 0 0 0 1-1V3a1 1 0 0 0-1-1zm-1 11h-7V4h7zM29 18h-9a1 1 0 0 0-1 1v10a1 1 0 0 0 1 1h9a1 1 0 0 0 1-1V19a1 1 0 0 0-1-1zm-1 10h-7v-8h7z" fill="#81A63D" opacity="1" data-original="#000000" class=""></path></g></svg>