<svg xmlns="http://www.w3.org/2000/svg" version="1.1" xmlns:xlink="http://www.w3.org/1999/xlink" width="512" height="512" x="0" y="0" viewBox="0 0 64 64" style="enable-background:new 0 0 512 512" xml:space="preserve" fill-rule="evenodd" class=""><g><path d="M28.284 57.736a25.86 25.86 0 0 1-11.85-4.915 2 2 0 0 0-2.398 3.201 29.858 29.858 0 0 0 13.68 5.674A2.002 2.002 0 0 0 29.98 60a2.002 2.002 0 0 0-1.696-2.264zm7.432-51.472C48.309 8.069 58 18.912 58 32s-9.691 23.931-22.284 25.736A2.002 2.002 0 0 0 34.02 60a2.002 2.002 0 0 0 2.264 1.696C50.815 59.613 62 47.103 62 32S50.815 4.387 36.284 2.304A2.002 2.002 0 0 0 34.02 4a2.002 2.002 0 0 0 1.696 2.264zM11.179 47.566a25.87 25.87 0 0 1-4.915-11.85 2.002 2.002 0 0 0-2.263-1.696 2.002 2.002 0 0 0-1.697 2.264 29.877 29.877 0 0 0 5.673 13.68 2 2 0 0 0 3.202-2.398zM6.264 28.284a25.86 25.86 0 0 1 4.915-11.85 2 2 0 0 0-3.201-2.398 29.858 29.858 0 0 0-5.674 13.68A2.002 2.002 0 0 0 4 29.98a2.002 2.002 0 0 0 2.264-1.696zm10.17-17.105a25.87 25.87 0 0 1 11.85-4.915 2.002 2.002 0 0 0 1.696-2.263 2.002 2.002 0 0 0-2.264-1.697 29.877 29.877 0 0 0-13.68 5.673 2 2 0 0 0 2.398 3.202z" fill="#81A63D" opacity="1" data-original="#000000"></path><path d="M32 10c-12.14 0-22 9.858-22 22s9.86 22 22 22 22-9.858 22-22-9.86-22-22-22zm11.06 23.696c.58-.365.94-1.006.94-1.696s-.36-1.331-.94-1.696l-16-10A2 2 0 0 0 24 22v20a2 2 0 0 0 3.06 1.696z" fill="#81A63D" opacity="1" data-original="#000000"></path></g></svg>