<svg xmlns="http://www.w3.org/2000/svg" enable-background="new 0 0 2500 2000" viewBox="0 0 2500 2000"><rect width="2500" height="2000" fill="none"/><path fill="#233d4c" d="M1669.35,671.91c0.14,20.61,16.96,37.21,37.58,37.08c7.5-0.05,14.47-2.31,20.3-6.16
		c3.73,1.23,7.73,1.88,11.88,1.85c20.62-0.14,37.21-16.96,37.08-37.58c-0.14-20.62-16.96-37.22-37.58-37.08
		c-7.5,0.05-14.47,2.31-20.29,6.16c-3.74-1.23-7.74-1.88-11.89-1.85C1685.82,634.47,1669.21,651.29,1669.35,671.91z"/><circle cx="1779.63" cy="566.5" r="32.39" fill="#233d4c" transform="rotate(-67.883 1779.673 566.52)"/><path fill="#233d4c" d="M1663.11,602.64c-1.84-3.12-6.6-12.14-4.68-23.35c2.32-13.54,13.45-24.77,28.36-28.74
		c6.97-1.33,30.32-4.89,54.95,8.14c21.44,11.34,44.2,50.67,28.49,73.44c-8.47,12.27-13.36,13.75-13.36,13.75
		C1722.99,633.62,1697,614.91,1663.11,602.64z"/><path fill="#f2a89b" d="M1699.65,679.94L1699.65,679.94c25.12,3.77,48.53-13.55,52.3-38.66l3.71-24.78
		c3.77-25.12-13.55-48.53-38.66-52.3h0c-25.12-3.77-48.53,13.55-52.3,38.66l-3.71,24.78
		C1657.22,652.76,1674.53,676.17,1699.65,679.94z"/><path fill="#233d4c" d="M1743.58,625.11c-11.88-2.73-13.92-20.28-10.41-28.27c-5.01,0.22-17.31,0.09-29.97-7.49
		c-9.59-5.74-15.07-13.17-17.71-17.35l1.47-16.41l63.3,11.29l17.62,33.62l-7.07,24.49L1743.58,625.11z"/><path fill="none" stroke="#233d4c" stroke-linecap="round" stroke-linejoin="round" stroke-miterlimit="10" stroke-width="5.412" d="M1713.21,606.04c-0.27-0.44-1.44-2.23-3.83-2.94c-2.42-0.72-4.4,0.16-4.86,0.38"/><ellipse cx="1669.02" cy="611" fill="#233d4c" rx="4.88" ry="2.75" transform="rotate(-81.952 1669.081 611.043)"/><ellipse cx="1704.52" cy="616.55" fill="#233d4c" rx="4.88" ry="2.75" transform="rotate(-81.952 1704.577 616.588)"/><path fill="none" stroke="#233d4c" stroke-linecap="round" stroke-linejoin="round" stroke-miterlimit="10" stroke-width="5.412" d="M1667.91,599.64c0.38-0.34,2-1.74,4.5-1.77c2.53-0.02,4.18,1.37,4.56,1.71"/><path fill="none" stroke="#e87f72" stroke-linecap="round" stroke-linejoin="round" stroke-miterlimit="10" stroke-width="5.412" d="M1686.55,612.44c-0.97,6.88-5.43,11.25-8.9,13.68c-1.68,1.17-1.44,3.72,0.4,4.59l5.54,2.61"/><path fill="none" stroke="#e87f72" stroke-linecap="round" stroke-linejoin="round" stroke-miterlimit="10" stroke-width="5.412" d="M1692.01,647.5c0.29-0.73,1.77-4.22,5.72-6c4.26-1.92,8.13-0.39,8.78-0.12"/><circle cx="1754.3" cy="636.51" r="15.65" fill="#f2a89b"/><circle cx="1754.3" cy="636.51" r="6.59" fill="#e87f72"/><g><path fill="#a1c180" d="M1913.99,933.25c0,17.23-5.27,34.16-15.26,48.47c-18.76,26.84-51.3,40.46-83.57,34.98l-449.08-98.94
		l-18.31-114.33c1.46,4.09,9.47,1.08,20.4-6.28c20.6-13.87,51.61-43.22,68.8-69.65l22.73,99.23
		c28.05-34.98,106.66-127.8,159.73-138.57c50.45-10.25,224.63,18.16,248.58,55.74c17.14,26.88,35.59,122.52,44.72,174.79
		C1913.57,923.52,1913.99,928.39,1913.99,933.25z"/><path fill="#fff" d="M1801.79,709.79c-14.34,38.44-50.87,58.98-81.6,58.98c-7.97,0-15.69-1.26-22.93-3.77
		c-31.08-10.75-51.99-43.17-52.67-78.94c2.89-0.04,5.9-0.02,9,0.05c38.82,0.83,94.3,8.86,139.47,21.19
		C1796.02,708.11,1798.94,708.94,1801.79,709.79z"/><path fill="#f2a89b" d="M1793.06,707.32c-15.53,40.48-59.04,60.86-92.84,49.15c-26.41-9.15-45.94-37.48-46.63-70.35
		C1692.4,686.95,1747.89,694.98,1793.06,707.32z"/><path fill="none" stroke="#609b88" stroke-linecap="round" stroke-linejoin="round" stroke-miterlimit="10" stroke-width="5.412" d="M1465.49,851.97l-5.8-25.22c0,0,0,0,0-0.02"/><path fill="#609b88" d="M1368.17,797.15c-10.93,7.36-18.94,10.37-20.4,6.28c-2-5.65,6.98-17.15,17.68-28.25L1368.17,797.15z"/><line x1="1801.79" x2="1816.06" y1="839.35" y2="928.73" fill="none" stroke="#609b88" stroke-linecap="round" stroke-linejoin="round" stroke-miterlimit="10" stroke-width="5.412"/></g><g><path fill="#f2a89b" d="M1430.01,697.11c-11.33-22.68-32.6-35.88-42.92-47.49c-3.11-3.5-8.33-4.19-12.31-1.72l0,0
		c-4.09,2.53-5.71,7.65-3.84,12.07c4.82,11.39,15,31.79,28.01,37.14H1430.01z"/><path fill="#f2a89b" d="M1356.01,695.34c-23.17,0-53.37-12.85-67.33-19.44c-4.48-2.11-6.79-7.13-5.47-11.91l0,0
		c1.63-5.9,8.03-9.01,13.7-6.7c12,4.9,33.33,11.79,59.1,12.14V695.34z"/><path fill="#f2a89b" d="M1356.01,695.34c-29.72,0-47.69-23.45-55.51-36.79c-2.85-4.86-1.34-11.09,3.41-14.11l0.42-0.27
		c4.56-2.89,10.52-1.79,13.87,2.45c6.04,7.64,17.83,18.62,37.8,22.82V695.34z"/><path fill="#f2a89b" d="M1436.97,727.5c-17.19,26.43-48.2,55.77-68.8,69.65l-2.72-21.97l-9.43-76.01
		c-15.96-7.38-31.93-26.03-40.69-37.5c-1.71-2.22-2.54-4.85-2.54-7.47c0-3.52,1.5-7.02,4.37-9.47c5.14-4.4,12.86-3.9,17.35,1.17
		c8.62,9.76,22.75,23.61,33.41,23.61h27.47c16.58,0,30.94,11.44,34.63,27.6L1436.97,727.5z"/><path fill="none" stroke="#e87f72" stroke-linecap="round" stroke-linejoin="round" stroke-miterlimit="10" stroke-width="5.412" d="M1367.9,669.51h27.47c16.58,0,30.94,11.44,34.63,27.6"/><path fill="none" stroke="#e87f72" stroke-linecap="round" stroke-linejoin="round" stroke-miterlimit="10" stroke-width="5.412" d="M1356.01,695.34c-29.72,0-47.69-23.45-55.51-36.79"/><path fill="none" stroke="#e87f72" stroke-linecap="round" stroke-linejoin="round" stroke-miterlimit="10" stroke-width="5.412" d="M1356.01,699.17c-15.96-7.38-31.93-26.03-40.69-37.5"/></g><g><path fill="#609b88" d="M1279.96,502.04c3.12-7.95,8.25-17.14,15.37-27.54c5.23-7.62,8.92-13.85,11.07-18.72
		c2.15-4.86,2.61-9.9,1.37-15.12c-1.76-7.42-6.13-12.57-13.1-15.46c-6.97-2.88-15.4-3.14-25.29-0.76
		c-9.49,2.28-17.44,6.26-23.88,11.93c-2.76,2.43-5.24,5.1-7.43,8.01c-5.47,7.24-14.62,10.65-23.31,8.03l-0.42-0.13
		c-14.53-4.38-19.83-22.25-10.02-33.82c3.57-4.21,7.59-8.15,12.05-11.82c12.76-10.48,29.02-18.1,48.79-22.85
		c23.2-5.57,42.98-5.12,59.33,1.33c16.35,6.46,26.6,18.42,30.74,35.87c1.95,8.23,2.31,15.77,1.06,22.64
		c-1.25,6.87-3.33,12.94-6.24,18.19c-2.91,5.26-6.83,11.45-11.75,18.56c-5.9,8.41-10.02,15.29-12.38,20.62
		c-1,2.26-1.65,4.63-1.96,7.08c-0.84,6.82-6.23,12.21-12.92,13.82l-10.93,2.63c-13.17,3.16-25.13-9.63-20.26-22.26
		C1279.9,502.2,1279.93,502.12,1279.96,502.04z M1297.28,596.62c-6.81-3.98-11.12-9.78-12.93-17.41
		c-1.81-7.62-0.59-14.64,3.64-21.07c4.23-6.42,10.58-10.65,19.06-12.69c8.47-2.03,16.04-1.15,22.7,2.66
		c6.66,3.81,10.9,9.52,12.7,17.14c1.81,7.62,0.57,14.76-3.72,21.4c-4.29,6.65-10.57,10.97-18.84,12.95
		C1311.63,601.61,1304.09,600.61,1297.28,596.62z"/><path fill="#a1c180" d="M1436.17,542.77c4.9-1.32,11.11-2.11,18.6-2.38c5.49-0.19,9.78-0.63,12.86-1.32c3.09-0.69,5.66-2.25,7.72-4.68
		c2.93-3.46,3.85-7.37,2.76-11.73c-1.09-4.35-3.94-8.48-8.57-12.37c-4.44-3.73-9.15-6.13-14.14-7.2c-2.14-0.46-4.29-0.7-6.46-0.73
		c-5.39-0.06-10.26-3.23-12.07-8.31l-0.09-0.25c-3.04-8.5,3.63-17.34,12.64-16.74c3.27,0.22,6.58,0.75,9.91,1.59
		c9.52,2.4,18.91,7.49,28.16,15.27c10.86,9.13,17.63,18.75,20.32,28.85c2.69,10.1,0.59,19.23-6.3,27.37
		c-3.25,3.84-6.73,6.67-10.46,8.5c-3.73,1.83-7.36,2.98-10.91,3.44c-3.54,0.47-7.89,0.78-13.03,0.94
		c-6.11,0.15-10.85,0.61-14.24,1.36c-1.44,0.32-2.8,0.84-4.08,1.57c-3.56,2.01-8.04,1.33-11.17-1.3l-5.12-4.3
		c-6.16-5.18-4.27-15.42,3.49-17.56C1436.07,542.79,1436.12,542.78,1436.17,542.77z M1397.05,584.46c-0.5-4.66,0.75-8.77,3.76-12.33
		c3.01-3.56,6.79-5.46,11.36-5.7c4.57-0.24,8.83,1.3,12.8,4.63c3.97,3.33,6.22,7.27,6.75,11.8c0.53,4.53-0.71,8.58-3.71,12.13
		c-3.01,3.56-6.86,5.49-11.55,5.78c-4.7,0.3-8.98-1.18-12.85-4.44C1399.73,593.08,1397.55,589.12,1397.05,584.46z"/></g><g><path fill="#fa0" d="M1766.97,872.83v747.23H836.51V821.6c0-12.63,10.24-22.87,22.87-22.87h171.34c7.78,0,15.03,3.96,19.24,10.51
		l19.42,30.22c4.21,6.55,11.46,10.51,19.24,10.51h655.49C1756.73,849.96,1766.97,860.2,1766.97,872.83z"/><path fill="#ececec" d="M1766.97,1620.06l-58.19-687.96c-1.31-15.45-14.23-27.32-29.73-27.32H808.47c-17.47,0-31.2,14.94-29.73,32.35
		l57.77,682.93H1766.97z"/><path fill="#fec749" d="M1586.39,979.84H703.12c-14.92,0-25.84,14.05-22.16,28.51l155.55,611.72h930.46l-158.42-622.99
		C1605.98,986.93,1596.85,979.84,1586.39,979.84z"/></g><g><path fill="#ececec" d="M819.98,1620.06l-207.03-0.07c-20.5-0.01-33.46-22.02-23.52-39.94L693,1393.2
		c10.25-18.49,36.83-18.48,47.06,0.02l103.45,186.92C853.45,1598.07,840.47,1620.07,819.98,1620.06z"/><path fill="#fec749" d="M703.41,1579.17c-3.5-3.37-5.24-7.47-5.24-12.3c0-4.83,1.72-8.87,5.15-12.11c3.43-3.24,7.82-4.86,13.16-4.86
			c5.34,0,9.72,1.62,13.16,4.87c3.43,3.24,5.15,7.28,5.14,12.11c0,4.83-1.75,8.93-5.25,12.3c-3.5,3.37-7.85,5.05-13.06,5.05
			C711.26,1584.22,706.91,1582.54,703.41,1579.17z M712.32,1449.22l8.39,0c7.32,0,13.12,6.2,12.62,13.51l-4.21,61.84
			c-0.45,6.64-5.97,11.79-12.63,11.79l0,0c-6.66,0-12.17-5.16-12.62-11.8l-4.17-61.84C699.2,1455.41,705,1449.21,712.32,1449.22z"/></g><g><path fill="#f2a89b" d="M1763.73,888.13c30.39,7.95,27.99,44.82-12.76,46.77c-7.28,0.35-13.39-5.41-13.39-12.69v0
		c0-6.6,5.01-12.17,11.59-12.74c5.09-0.44,10.77-1.67,14.56-4.67V888.13z"/><path fill="#f2a89b" d="M1737.58,946.79c0,6.42,5.12,11.66,11.54,11.83c40.67,1.07,41.67-25.13,29.5-34.37
		c-5.59,6.01-15.32,10.38-29.41,10.7c-3.22,0.07-6.13,1.42-8.23,3.55C1738.88,940.64,1737.58,943.57,1737.58,946.79z"/><path fill="#f2a89b" d="M1737.58,969.12v0.05c0,5.25,3.77,9.75,8.94,10.62c25.45,4.29,34.44-14.88,22.46-23.77
		c-5.21,1.57-11.92,2.45-20.4,2.33C1742.54,958.26,1737.58,963.08,1737.58,969.12z"/><path fill="none" stroke="#e87f72" stroke-linecap="round" stroke-linejoin="round" stroke-miterlimit="10" stroke-width="5.412" d="M1778.62,924.26c-5.59,6.01-15.32,10.38-29.41,10.7"/><path fill="none" stroke="#e87f72" stroke-linecap="round" stroke-linejoin="round" stroke-miterlimit="10" stroke-width="5.412" d="M1749.12,958.63c8.68,0.23,15.55-0.78,20.87-2.61"/></g></svg>