<svg width="1328" height="1241" viewBox="0 0 1328 1241" fill="none" xmlns="http://www.w3.org/2000/svg">
<path d="M1083.33 291.985C1083.47 312.595 1100.29 329.195 1120.91 329.065C1128.41 329.015 1135.38 326.755 1141.21 322.905C1144.94 324.135 1148.94 324.785 1153.09 324.755C1173.71 324.615 1190.3 307.795 1190.17 287.175C1190.03 266.555 1173.21 249.955 1152.59 250.095C1145.09 250.145 1138.12 252.405 1132.3 256.255C1128.56 255.025 1124.56 254.375 1120.41 254.405C1099.8 254.545 1083.19 271.365 1083.33 291.985Z" fill="#233D4C"/>
<path d="M1223.63 198.828C1230.36 182.256 1222.39 163.362 1205.82 156.627C1189.24 149.892 1170.35 157.866 1163.61 174.439C1156.88 191.011 1164.85 209.905 1181.43 216.64C1198 223.375 1216.89 215.4 1223.63 198.828Z" fill="#233D4C"/>
<path d="M1077.09 222.717C1075.25 219.597 1070.49 210.577 1072.41 199.367C1074.73 185.827 1085.86 174.597 1100.77 170.627C1107.74 169.297 1131.09 165.737 1155.72 178.767C1177.16 190.107 1199.92 229.437 1184.21 252.207C1175.74 264.477 1170.85 265.957 1170.85 265.957C1136.97 253.697 1110.98 234.987 1077.09 222.717Z" fill="#233D4C"/>
<path d="M1113.63 300.021C1138.75 303.791 1162.16 286.471 1165.93 261.361L1169.64 236.581C1173.41 211.461 1156.09 188.051 1130.98 184.281C1105.86 180.511 1082.45 197.831 1078.68 222.941L1074.97 247.721C1071.2 272.841 1088.51 296.251 1113.63 300.021Z" fill="#F2A89B"/>
<path d="M1157.56 245.192C1145.68 242.462 1143.64 224.912 1147.15 216.922C1142.14 217.142 1129.84 217.012 1117.18 209.432C1107.59 203.692 1102.11 196.262 1099.47 192.082L1100.94 175.672L1164.24 186.962L1181.86 220.582L1174.79 245.072L1157.56 245.192Z" fill="#233D4C"/>
<path d="M1127.19 226.117C1126.92 225.677 1125.75 223.887 1123.36 223.177C1120.94 222.457 1118.96 223.337 1118.5 223.557" stroke="#233D4C" stroke-width="5.412" stroke-miterlimit="10" stroke-linecap="round" stroke-linejoin="round"/>
<path d="M1085.74 231.563C1086.11 228.894 1085.2 226.559 1083.7 226.346C1082.19 226.133 1080.67 228.124 1080.29 230.793C1079.91 233.462 1080.83 235.797 1082.33 236.01C1083.83 236.223 1085.36 234.232 1085.74 231.563Z" fill="#233D4C"/>
<path d="M1121.24 237.102C1121.61 234.434 1120.7 232.098 1119.2 231.885C1117.69 231.673 1116.17 233.664 1115.79 236.332C1115.41 239.001 1116.33 241.336 1117.83 241.549C1119.33 241.762 1120.86 239.771 1121.24 237.102Z" fill="#233D4C"/>
<path d="M1081.89 219.716C1082.27 219.376 1083.89 217.976 1086.39 217.946C1088.92 217.926 1090.57 219.316 1090.95 219.656" stroke="#233D4C" stroke-width="5.412" stroke-miterlimit="10" stroke-linecap="round" stroke-linejoin="round"/>
<path d="M1100.53 232.516C1099.56 239.396 1095.1 243.766 1091.63 246.196C1089.95 247.366 1090.19 249.916 1092.03 250.786L1097.57 253.396" stroke="#E87F72" stroke-width="5.412" stroke-miterlimit="10" stroke-linecap="round" stroke-linejoin="round"/>
<path d="M1105.99 267.578C1106.28 266.848 1107.76 263.358 1111.71 261.578C1115.97 259.658 1119.84 261.188 1120.49 261.458" stroke="#E87F72" stroke-width="5.412" stroke-miterlimit="10" stroke-linecap="round" stroke-linejoin="round"/>
<path d="M1168.28 272.237C1176.93 272.237 1183.93 265.231 1183.93 256.588C1183.93 247.944 1176.93 240.938 1168.28 240.938C1159.64 240.938 1152.63 247.944 1152.63 256.588C1152.63 265.231 1159.64 272.237 1168.28 272.237Z" fill="#F2A89B"/>
<path d="M1168.28 263.18C1171.92 263.18 1174.87 260.23 1174.87 256.59C1174.87 252.95 1171.92 250 1168.28 250C1164.64 250 1161.69 252.95 1161.69 256.59C1161.69 260.23 1164.64 263.18 1168.28 263.18Z" fill="#E87F72"/>
<path d="M1327.97 553.328C1327.97 570.558 1322.7 587.488 1312.71 601.798C1293.95 628.638 1261.41 642.258 1229.14 636.778L780.063 537.838L761.753 423.508C763.213 427.598 771.223 424.588 782.153 417.228C802.753 403.358 833.763 374.008 850.953 347.578L873.683 446.808C901.733 411.828 980.343 319.008 1033.41 308.238C1083.86 297.988 1258.04 326.398 1281.99 363.978C1299.13 390.858 1317.58 486.498 1326.71 538.768C1327.55 543.598 1327.97 548.468 1327.97 553.328Z" fill="#A1C180"/>
<path d="M1215.77 329.868C1201.43 368.308 1164.9 388.848 1134.17 388.848C1126.2 388.848 1118.48 387.588 1111.24 385.078C1080.16 374.328 1059.25 341.908 1058.57 306.138C1061.46 306.098 1064.47 306.118 1067.57 306.188C1106.39 307.018 1161.87 315.048 1207.04 327.378C1210 328.188 1212.92 329.018 1215.77 329.868Z" fill="white"/>
<path d="M1207.04 327.395C1191.51 367.875 1148 388.255 1114.2 376.545C1087.79 367.395 1068.26 339.065 1067.57 306.195C1106.38 307.025 1161.87 315.055 1207.04 327.395Z" fill="#F2A89B"/>
<path d="M879.473 472.045L873.673 446.825C873.673 446.825 873.673 446.825 873.673 446.805" stroke="#609B88" stroke-width="5.412" stroke-miterlimit="10" stroke-linecap="round" stroke-linejoin="round"/>
<path d="M782.153 417.228C771.223 424.588 763.213 427.598 761.753 423.508C759.753 417.858 768.733 406.358 779.433 395.258L782.153 417.228Z" fill="#609B88"/>
<path d="M1215.77 459.43L1230.04 548.81" stroke="#609B88" stroke-width="5.412" stroke-miterlimit="10" stroke-linecap="round" stroke-linejoin="round"/>
<path d="M843.993 317.187C832.663 294.507 811.393 281.307 801.073 269.697C797.963 266.197 792.743 265.507 788.763 267.977C784.673 270.507 783.053 275.627 784.923 280.047C789.743 291.437 799.923 311.837 812.933 317.187H843.993Z" fill="#F2A89B"/>
<path d="M769.993 315.418C746.823 315.418 716.623 302.568 702.663 295.978C698.183 293.868 695.873 288.848 697.193 284.068C698.823 278.168 705.223 275.058 710.893 277.368C722.893 282.268 744.223 289.158 769.993 289.508V315.418Z" fill="#F2A89B"/>
<path d="M769.993 315.416C740.273 315.416 722.303 291.966 714.483 278.626C711.633 273.766 713.143 267.536 717.893 264.516L718.313 264.246C722.873 261.356 728.833 262.456 732.183 266.696C738.223 274.336 750.013 285.316 769.983 289.516V315.416H769.993Z" fill="#F2A89B"/>
<path d="M850.953 347.576C833.763 374.006 802.753 403.346 782.153 417.226L779.433 395.256L770.003 319.246C754.043 311.866 738.073 293.216 729.313 281.746C727.603 279.526 726.773 276.896 726.773 274.276C726.773 270.756 728.273 267.256 731.143 264.806C736.283 260.406 744.003 260.906 748.493 265.976C757.113 275.736 771.243 289.586 781.903 289.586H809.373C825.953 289.586 840.313 301.026 844.003 317.186L850.953 347.576Z" fill="#F2A89B"/>
<path d="M781.883 289.586H809.353C825.933 289.586 840.293 301.026 843.983 317.186" stroke="#E87F72" stroke-width="5.412" stroke-miterlimit="10" stroke-linecap="round" stroke-linejoin="round"/>
<path d="M769.993 315.415C740.273 315.415 722.303 291.965 714.483 278.625" stroke="#E87F72" stroke-width="5.412" stroke-miterlimit="10" stroke-linecap="round" stroke-linejoin="round"/>
<path d="M769.993 319.25C754.033 311.87 738.063 293.22 729.303 281.75" stroke="#E87F72" stroke-width="5.412" stroke-miterlimit="10" stroke-linecap="round" stroke-linejoin="round"/>
<path d="M693.943 122.117C697.063 114.167 702.193 104.977 709.313 94.5772C714.543 86.9572 718.233 80.7272 720.383 75.8572C722.533 70.9972 722.993 65.9572 721.753 60.7372C719.993 53.3172 715.623 48.1672 708.653 45.2772C701.683 42.3972 693.253 42.1372 683.363 44.5172C673.873 46.7972 665.923 50.7772 659.483 56.4472C656.723 58.8772 654.243 61.5472 652.053 64.4572C646.583 71.6972 637.433 75.1072 628.743 72.4872L628.323 72.3572C613.793 67.9772 608.493 50.1072 618.303 38.5372C621.873 34.3272 625.893 30.3872 630.353 26.7172C643.113 16.2372 659.373 8.61722 679.143 3.86722C702.343 -1.70278 722.123 -1.2528 738.473 5.1972C754.823 11.6572 765.073 23.6172 769.213 41.0672C771.163 49.2972 771.523 56.8372 770.273 63.7072C769.023 70.5772 766.943 76.6472 764.033 81.8972C761.123 87.1572 757.203 93.3472 752.283 100.457C746.383 108.867 742.263 115.747 739.903 121.077C738.903 123.337 738.253 125.707 737.943 128.157C737.103 134.977 731.713 140.367 725.023 141.977L714.093 144.607C700.923 147.767 688.963 134.977 693.833 122.347C693.883 122.277 693.913 122.197 693.943 122.117ZM711.263 216.697C704.453 212.717 700.143 206.917 698.333 199.287C696.523 191.667 697.743 184.647 701.973 178.217C706.203 171.797 712.553 167.567 721.033 165.527C729.503 163.497 737.073 164.377 743.733 168.187C750.393 171.997 754.633 177.707 756.433 185.327C758.243 192.947 757.003 200.087 752.713 206.727C748.423 213.377 742.143 217.697 733.873 219.677C725.613 221.687 718.073 220.687 711.263 216.697Z" fill="#609B88"/>
<path d="M850.153 162.848C855.053 161.528 861.263 160.738 868.753 160.468C874.243 160.278 878.533 159.838 881.613 159.148C884.703 158.458 887.273 156.898 889.333 154.468C892.263 151.008 893.183 147.098 892.093 142.738C891.003 138.388 888.153 134.258 883.523 130.368C879.083 126.638 874.373 124.238 869.383 123.168C867.243 122.708 865.093 122.468 862.923 122.438C857.533 122.378 852.663 119.208 850.853 114.128L850.763 113.878C847.723 105.378 854.393 96.5383 863.403 97.1383C866.673 97.3583 869.983 97.8883 873.313 98.7283C882.833 101.128 892.223 106.218 901.473 113.998C912.333 123.128 919.103 132.748 921.793 142.848C924.483 152.948 922.383 162.078 915.493 170.218C912.243 174.058 908.763 176.888 905.033 178.718C901.303 180.548 897.673 181.698 894.123 182.158C890.583 182.628 886.233 182.938 881.093 183.098C874.983 183.248 870.243 183.708 866.853 184.458C865.413 184.778 864.053 185.298 862.773 186.028C859.213 188.038 854.733 187.358 851.603 184.728L846.483 180.428C840.323 175.248 842.213 165.008 849.973 162.868C850.053 162.868 850.103 162.858 850.153 162.848ZM811.033 204.538C810.533 199.878 811.783 195.768 814.793 192.208C817.803 188.648 821.583 186.748 826.153 186.508C830.723 186.268 834.983 187.808 838.953 191.138C842.923 194.468 845.173 198.408 845.703 202.938C846.233 207.468 844.993 211.518 841.993 215.068C838.983 218.628 835.133 220.558 830.443 220.848C825.743 221.148 821.463 219.668 817.593 216.408C813.713 213.158 811.533 209.198 811.033 204.538Z" fill="#A1C180"/>
<path d="M1180.95 492.905V1240.13H250.493V441.675C250.493 429.045 260.733 418.805 273.363 418.805H444.703C452.483 418.805 459.733 422.765 463.943 429.315L483.363 459.535C487.573 466.085 494.823 470.045 502.603 470.045H1158.09C1170.71 470.035 1180.95 480.275 1180.95 492.905Z" fill="#FFAA00"/>
<path d="M1180.95 1240.13L1122.76 552.172C1121.45 536.722 1108.53 524.852 1093.03 524.852H222.453C204.983 524.852 191.253 539.792 192.723 557.202L250.493 1240.13H1180.95Z" fill="#ECECEC"/>
<path d="M1000.37 599.914H117.103C102.183 599.914 91.2631 613.964 94.9431 628.424L250.493 1240.14H1180.95L1022.53 617.154C1019.96 607.004 1010.83 599.914 1000.37 599.914Z" fill="#FEC749"/>
<path d="M233.963 1240.14L26.9331 1240.07C6.43312 1240.06 -6.5269 1218.05 3.4131 1200.13L106.983 1013.28C117.233 994.785 143.813 994.795 154.043 1013.3L257.493 1200.22C267.433 1218.15 254.453 1240.15 233.963 1240.14Z" fill="#ECECEC"/>
<path d="M117.393 1199.25C113.893 1195.88 112.153 1191.78 112.153 1186.95C112.153 1182.12 113.873 1178.08 117.303 1174.84C120.733 1171.6 125.123 1169.98 130.463 1169.98C135.803 1169.98 140.183 1171.6 143.623 1174.85C147.053 1178.09 148.773 1182.13 148.763 1186.96C148.763 1191.79 147.013 1195.89 143.513 1199.26C140.013 1202.63 135.663 1204.31 130.453 1204.31C125.243 1204.3 120.893 1202.62 117.393 1199.25ZM126.303 1069.3H134.693C142.013 1069.3 147.813 1075.5 147.313 1082.81L143.103 1144.65C142.653 1151.29 137.133 1156.44 130.473 1156.44C123.813 1156.44 118.303 1151.28 117.853 1144.64L113.683 1082.8C113.183 1075.49 118.983 1069.29 126.303 1069.3Z" fill="#FEC749"/>
<path d="M1177.71 508.211C1208.1 516.161 1205.7 553.031 1164.95 554.981C1157.67 555.331 1151.56 549.571 1151.56 542.291C1151.56 535.691 1156.57 530.121 1163.15 529.551C1168.24 529.111 1173.92 527.881 1177.71 524.881V508.211Z" fill="#F2A89B"/>
<path d="M1151.56 566.868C1151.56 573.288 1156.68 578.528 1163.1 578.698C1203.77 579.768 1204.77 553.568 1192.6 544.328C1187.01 550.338 1177.28 554.708 1163.19 555.028C1159.97 555.098 1157.06 556.448 1154.96 558.578C1152.86 560.718 1151.56 563.648 1151.56 566.868Z" fill="#F2A89B"/>
<path d="M1151.56 589.202V589.252C1151.56 594.502 1155.33 599.002 1160.5 599.872C1185.95 604.162 1194.94 584.992 1182.96 576.102C1177.75 577.672 1171.04 578.552 1162.56 578.432C1156.52 578.342 1151.56 583.162 1151.56 589.202Z" fill="#F2A89B"/>
<path d="M1192.6 544.344C1187.01 550.354 1177.28 554.724 1163.19 555.044" stroke="#E87F72" stroke-width="5.412" stroke-miterlimit="10" stroke-linecap="round" stroke-linejoin="round"/>
<path d="M1163.1 578.712C1171.78 578.942 1178.65 577.932 1183.97 576.102" stroke="#E87F72" stroke-width="5.412" stroke-miterlimit="10" stroke-linecap="round" stroke-linejoin="round"/>
</svg>
