<svg xmlns="http://www.w3.org/2000/svg" version="1.1" xmlns:xlink="http://www.w3.org/1999/xlink" width="512" height="512" x="0" y="0" viewBox="0 0 64 64" style="enable-background:new 0 0 512 512" xml:space="preserve" class=""><g><path d="M8 49h24a1 1 0 1 0 0-2H8c-1.103 0-2-.897-2-2V8c0-1.103.897-2 2-2h44c1.103 0 2 .897 2 2v4H40.414a2.399 2.399 0 0 1-1.707-.708A4.388 4.388 0 0 0 35.586 10H10c-1.302.024-1.326 1.974 0 2h25.586c.644 0 1.25.251 1.707.708A4.388 4.388 0 0 0 40.414 14H54v20.26c.007 1.3 1.985 1.322 2 0V8c0-2.206-1.794-4-4-4H8C5.794 4 4 5.794 4 8v37c0 2.206 1.794 4 4 4z" fill="#81A63D" opacity="1" data-original="#000000"></path><path d="M43.5 9c-.022-1.315-1.978-1.315-2 0 .022 1.314 1.978 1.314 2 0zM47.5 9c-.022-1.315-1.978-1.315-2 0 .022 1.314 1.978 1.314 2 0zM51.5 9c-.022-1.315-1.978-1.315-2 0 .022 1.314 1.978 1.314 2 0zM16 17a1 1 0 0 0-1 1v1h-3c-1.654 0-3 1.346-3 3v16c0 1.654 1.346 3 3 3h20c1.654 0 3-1.346 3-3V22c0-1.654-1.346-3-3-3h-3v-1a1 1 0 1 0-2 0v1H17v-1a1 1 0 0 0-1-1zm11 4c.02 1.316 1.98 1.312 2 0h3c.552 0 1 .449 1 1v2H15c-1.31.021-1.318 1.977 0 2h18v12c0 .551-.448 1-1 1H12c-.552 0-1-.449-1-1V22c0-.551.448-1 1-1h3a1 1 0 1 0 2 0z" fill="#81A63D" opacity="1" data-original="#000000"></path><path d="M20.543 34.707a1 1 0 0 0 1.414 0l3-3c.92-.927-.485-2.336-1.414-1.414l-2.293 2.293-.793-.793c-.927-.92-2.336.485-1.414 1.414l1.5 1.5zM58 45h-.466a9.86 9.86 0 0 0-.673-1.619c.997-.766 1.277-2.233.331-3.16l-1.414-1.413c-.928-.943-2.39-.669-3.159.33A9.919 9.919 0 0 0 51 38.466c.156-1.257-.668-2.47-2-2.466h-2c-1.103 0-2 .897-2 2v.466c-.558.176-1.1.4-1.62.672-.766-.995-2.233-1.276-3.158-.33l-1.414 1.414c-.78.78-.78 2.049 0 2.828l.33.331A9.86 9.86 0 0 0 38.467 45c-1.257-.156-2.47.668-2.466 2v2c0 1.103.897 2 2 2h.466c.176.558.4 1.1.673 1.619-.997.766-1.277 2.233-.331 3.16l1.414 1.413c.928.943 2.39.669 3.159-.33.52.272 1.061.496 1.619.672-.156 1.257.668 2.47 2 2.466h2c1.332 0 2.156-1.204 2-2.466.558-.176 1.1-.4 1.62-.672.766.995 2.233 1.276 3.158.33l1.414-1.414c.943-.928.67-2.39-.33-3.16.272-.519.496-1.06.672-1.618 1.257.156 2.47-.668 2.466-2v-2c0-1.103-.897-2-2-2zm0 4c-.768.034-1.979-.247-2.205.778a7.96 7.96 0 0 1-1.027 2.473 1 1 0 0 0 .138 1.24l.872.873-1.414 1.414c-.559-.516-1.239-1.578-2.112-1.01a7.928 7.928 0 0 1-2.474 1.026 1 1 0 0 0-.778.976V58h-2v-1.23a1 1 0 0 0-.778-.976 7.927 7.927 0 0 1-2.474-1.027c-.875-.57-1.558.503-2.112 1.011l-1.414-1.414.872-.872a1 1 0 0 0 .138-1.24 7.959 7.959 0 0 1-1.027-2.474A1 1 0 0 0 39.23 49H38v-2c.768-.034 1.979.247 2.205-.778a7.96 7.96 0 0 1 1.027-2.473 1 1 0 0 0-.138-1.24l-.872-.873 1.414-1.414.872.872a1 1 0 0 0 1.24.139 7.927 7.927 0 0 1 2.474-1.027c1.028-.226.743-1.448.778-2.206h2c.034.769-.247 1.979.778 2.206.876.199 1.708.544 2.474 1.027a1 1 0 0 0 1.24-.14l.872-.871 1.414 1.414-.872.872a1 1 0 0 0-.138 1.24 7.959 7.959 0 0 1 1.027 2.474c.225 1.028 1.447.743 2.205.778v2z" fill="#81A63D" opacity="1" data-original="#000000"></path><path d="M52.3 45.237c-1.24.523-.198 1.822-.3 2.763-.167 5.285-7.833 5.286-8 0-.052-2.77 2.919-4.77 5.47-3.727 1.234.45 1.94-1.372.72-1.866C46.365 40.847 41.92 43.854 42 48c.282 7.94 11.72 7.94 12 0-.045-1.036-.178-3.203-1.7-2.763z" fill="#81A63D" opacity="1" data-original="#000000"></path></g></svg>