<svg width="253" height="96" viewBox="0 0 253 96" fill="none" xmlns="http://www.w3.org/2000/svg">
<g clip-path="url(#clip0_554_87)">
<path d="M100.95 23.32C100.95 21.23 102.64 19.54 104.73 19.54C106.82 19.54 108.51 21.23 108.51 23.32V71.82C108.51 73.91 106.82 75.6 104.73 75.6C102.64 75.6 100.95 73.91 100.95 71.82V23.32ZM0 31.82C0 29.73 1.69 28.04 3.78 28.04C5.87 28.04 7.56 29.73 7.56 31.82V63.31C7.56 65.4 5.87 67.09 3.78 67.09C1.69 67.09 0 65.4 0 63.31V31.82ZM14.42 23.32C14.42 21.23 16.11 19.54 18.2 19.54C20.29 19.54 21.98 21.23 21.98 23.32V71.82C21.98 73.91 20.29 75.6 18.2 75.6C16.11 75.6 14.42 73.91 14.42 71.82V23.32ZM28.9 13.9C28.9 11.82 30.57 10.14 32.62 10.14C34.68 10.14 36.34 11.82 36.34 13.9V81.24C36.34 83.32 34.67 85 32.62 85C30.56 85 28.9 83.32 28.9 81.24V13.9ZM43.26 3.78C43.26 1.69 44.95 0 47.04 0C49.13 0 50.82 1.69 50.82 3.78V91.35C50.82 93.44 49.13 95.13 47.04 95.13C44.95 95.13 43.26 93.44 43.26 91.35V3.78ZM86.53 31.82C86.53 29.73 88.22 28.04 90.31 28.04C92.4 28.04 94.09 29.73 94.09 31.82V63.31C94.09 65.4 92.4 67.09 90.31 67.09C88.22 67.09 86.53 65.4 86.53 63.31V31.82ZM72.11 23.32C72.11 21.23 73.8 19.54 75.89 19.54C77.98 19.54 79.67 21.23 79.67 23.32V71.82C79.67 73.91 77.98 75.6 75.89 75.6C73.8 75.6 72.11 73.91 72.11 71.82V23.32ZM57.74 13.9C57.74 11.82 59.41 10.14 61.46 10.14C63.52 10.14 65.18 11.82 65.18 13.9V81.24C65.18 83.32 63.51 85 61.46 85C59.4 85 57.74 83.32 57.74 81.24V13.9ZM115.43 13.9C115.43 11.82 117.1 10.14 119.15 10.14C121.21 10.14 122.87 11.82 122.87 13.9V81.24C122.87 83.32 121.2 85 119.15 85C117.09 85 115.43 83.32 115.43 81.24V13.9Z" fill="#31535A"/>
</g>
<g clip-path="url(#clip1_554_87)">
<path d="M230.95 23.32C230.95 21.23 232.64 19.54 234.73 19.54C236.82 19.54 238.51 21.23 238.51 23.32V71.82C238.51 73.91 236.82 75.6 234.73 75.6C232.64 75.6 230.95 73.91 230.95 71.82V23.32ZM130 31.82C130 29.73 131.69 28.04 133.78 28.04C135.87 28.04 137.56 29.73 137.56 31.82V63.31C137.56 65.4 135.87 67.09 133.78 67.09C131.69 67.09 130 65.4 130 63.31V31.82ZM144.42 23.32C144.42 21.23 146.11 19.54 148.2 19.54C150.29 19.54 151.98 21.23 151.98 23.32V71.82C151.98 73.91 150.29 75.6 148.2 75.6C146.11 75.6 144.42 73.91 144.42 71.82V23.32ZM158.9 13.9C158.9 11.82 160.57 10.14 162.62 10.14C164.68 10.14 166.34 11.82 166.34 13.9V81.24C166.34 83.32 164.67 85 162.62 85C160.56 85 158.9 83.32 158.9 81.24V13.9ZM173.26 3.78C173.26 1.69 174.95 0 177.04 0C179.13 0 180.82 1.69 180.82 3.78V91.35C180.82 93.44 179.13 95.13 177.04 95.13C174.95 95.13 173.26 93.44 173.26 91.35V3.78ZM216.53 31.82C216.53 29.73 218.22 28.04 220.31 28.04C222.4 28.04 224.09 29.73 224.09 31.82V63.31C224.09 65.4 222.4 67.09 220.31 67.09C218.22 67.09 216.53 65.4 216.53 63.31V31.82ZM202.11 23.32C202.11 21.23 203.8 19.54 205.89 19.54C207.98 19.54 209.67 21.23 209.67 23.32V71.82C209.67 73.91 207.98 75.6 205.89 75.6C203.8 75.6 202.11 73.91 202.11 71.82V23.32ZM187.74 13.9C187.74 11.82 189.41 10.14 191.46 10.14C193.52 10.14 195.18 11.82 195.18 13.9V81.24C195.18 83.32 193.51 85 191.46 85C189.4 85 187.74 83.32 187.74 81.24V13.9ZM245.43 13.9C245.43 11.82 247.1 10.14 249.15 10.14C251.21 10.14 252.87 11.82 252.87 13.9V81.24C252.87 83.32 251.2 85 249.15 85C247.09 85 245.43 83.32 245.43 81.24V13.9Z" fill="#31535A"/>
</g>
<defs>
<clipPath id="clip0_554_87">
<rect width="122.88" height="95.13" fill="white"/>
</clipPath>
<clipPath id="clip1_554_87">
<rect width="122.88" height="95.13" fill="white" transform="translate(130)"/>
</clipPath>
</defs>
</svg>
