<svg width="20" height="20" viewBox="0 0 20 20" fill="none" xmlns="http://www.w3.org/2000/svg">
<path d="M18.3832 18.3537C16.1566 15.1048 13.9281 11.857 11.7005 8.60872C11.6714 8.56641 11.6447 8.52235 11.6084 8.46615C11.9986 8.01128 12.3869 7.55838 12.7755 7.10569C14.7955 4.75304 16.8157 2.40017 18.8357 0.047309C18.8482 0.0325521 18.8582 0.015842 18.8695 0H17.154C15.0574 2.44141 12.9607 4.88303 10.8307 7.36328C10.8051 7.31706 10.7868 7.27734 10.7625 7.24197C9.12689 4.85612 7.49082 2.4707 5.85519 0.0848524C5.83718 0.0583767 5.82438 0.0284288 5.80897 0H-6.10352e-05C0.0502862 0.0824653 0.0967271 0.167535 0.151198 0.246962C2.60628 3.82813 5.06201 7.40885 7.51773 10.9898C7.54334 11.0271 7.56786 11.0653 7.60367 11.1194C7.40424 11.3533 7.20372 11.5896 7.00168 11.8249C4.71869 14.4835 2.43549 17.1419 0.152717 19.8008C0.0984633 19.8641 0.0507202 19.9334 -6.10352e-05 20H1.71543C2.49234 19.0909 3.26773 18.1806 4.04616 17.2728C5.43006 15.6589 6.81591 14.0462 8.20089 12.4334C8.25146 12.3743 8.30354 12.3168 8.36387 12.248C8.40293 12.2954 8.43766 12.3318 8.46587 12.3728C10.1829 14.8761 11.8995 17.3796 13.6158 19.8835C13.6412 19.9206 13.6616 19.9612 13.6844 20H19.4932C19.1234 19.4512 18.7573 18.8997 18.3832 18.3537ZM16.9212 18.7567C16.1807 18.7574 15.4403 18.7535 14.6998 18.7604C14.562 18.7615 14.4772 18.7222 14.3966 18.607C10.4196 12.9013 6.43939 7.19748 2.45979 1.49349C2.42312 1.44097 2.3897 1.38607 2.3311 1.29622C3.05745 1.29622 3.74582 1.32357 4.43071 1.28581C4.83588 1.26345 5.05918 1.40603 5.28857 1.73633C9.17464 7.33116 13.0761 12.9154 16.9741 18.502C17.0247 18.5744 17.0735 18.648 17.1399 18.7452C17.0446 18.7504 16.983 18.7565 16.9212 18.7567Z" fill="#fff"/>
</svg>
