<svg width="363" height="413" viewBox="0 0 363 413" fill="none" xmlns="http://www.w3.org/2000/svg">
<path d="M127.2 412.2C120.8 410.9 116.8 409.3 112.4 406.3C107.2 402.7 102.1 396.8 99.9 391.7C97.3 385.7 96.9 383.7 96.6 373.9L96.3 364.5L87.8 364.2C77.4 363.9 75.2 363.4 68.8 360.3C63 357.5 57.9 353.2 54.7 348.3C52.5 345 49.8 339 49 335.4C48.6 333.9 48.3 321.9 48.1 300.3L47.8 267.5H23.9H0V231.1V195H12H24L24.1 219.1L24.2 243.2L48.3 243.3L72.4 243.4V286.8C72.4 329.3 72.4 330.2 73.4 332.4C74.5 335 76.4 337 78.9 338.5C80.4 339.5 81.5 339.6 88.5 339.8L96.4 339.9V291.6V243.3H108.4H120.4L120.5 311.2L120.6 379.1L121.6 381.1C123 383.6 125 385.6 127.6 387C129.4 388 130.5 388 137.1 388.1H144.6L144.7 315.7L144.8 243.3H156.8H168.8V328V412.5H148.4C137.3 412.4 127.7 412.3 127.2 412.2Z" fill="#84A63D"/>
<path d="M192.9 327.998V243.498H205.2H217.4V315.798V387.998H229.4H241.4V339.698V291.398L253.4 291.498L265.4 291.598V338.998C265.4 364.998 265.6 386.698 265.7 387.098C266 387.798 267.1 387.898 273.2 387.898C279.8 387.898 280.7 387.798 282.8 386.698C285.7 385.198 287.1 383.798 288.3 380.898C289.3 378.598 289.4 377.998 289.4 310.998V243.398H301.7H314V291.698V339.998L321.6 339.798C328.6 339.698 329.4 339.498 331.4 338.398C334 336.898 336.7 333.598 337.4 330.998C337.7 329.798 337.9 314.198 337.9 286.298V243.398H350.2H362.4L362.2 287.998C362 337.998 362.2 335.998 358.4 343.598C354.7 351.098 348.5 357.198 341.2 360.598C335.2 363.398 332.4 363.898 322.8 364.198L314 364.498L313.7 373.498C313.4 381.998 313.4 382.898 311.9 387.298C309.8 393.498 307.4 397.298 302.8 401.798C298.4 406.198 295 408.298 289 410.498L284.6 411.998L238.8 412.198L192.9 412.398V327.998Z" fill="#84A63D"/>
<path d="M241.6 267.5C241.5 267.4 241.4 261.9 241.4 255.4V243.5H253.4H265.4L265.3 255.5L265.1 267.5L253.4 267.6C247.1 267.7 241.7 267.6 241.6 267.5Z" fill="#84A63D"/>
<path d="M338 230.5V217.7H193H48L48.1 148.1C48.3 69.9 48 76.7 52.1 68.3C56.4 59.7 65.5 52.4 75.5 49.6C76.5 49.3 81.5 49 86.8 48.8L96.3 48.4L96.6 38.6C97 27.8 97.4 25.7 101 18.8C103.7 13.7 110.1 7.4 115.5 4.6C117.7 3.4 119.8 2.5 120.1 2.5C120.5 2.5 120.6 25.7 120.6 85.8V169.2H108.6H96.6V120.9V72.6L89 72.8C82.3 72.9 81.1 73.1 79.3 74.1C76.7 75.5 73.8 78.9 73 81.2C72.7 82.3 72.5 101.6 72.6 138.2L72.7 193.5H217.5H362.3L362.5 218.4V243.2H350.2H337.9V230.5H338Z" fill="#305157"/>
<path d="M253.4 169.3L145 169.2V157.2V145.2H169H193V84.9V24.6H181H169V72.9V121.2H157H145V60.6V0L146.1 0.299995C146.7 0.499995 163 0.599998 182.3 0.599998H217.5L217.6 72.7L217.7 144.8H229.5H241.3L241.4 72.4L241.5 0.199997H261.2C284 0.299997 286.4 0.499997 293.8 4.2C303.1 8.8 309.2 16 312.6 26.4C313.4 28.9 313.7 31.3 313.9 39L314.2 48.5L321.7 48.6C330.5 48.7 334.4 49.3 339.3 51.2C351.5 56.1 360.1 67 361.8 79.8C362.5 84.2 362.6 168.1 362 168.9C361.8 169.3 325.2 169.4 253.4 169.3ZM289.4 89.5L289.5 34L288.2 31.4C287.5 30 286.2 28.2 285.2 27.5C281.9 25.1 280.5 24.7 272.7 24.7H265.5V84.6C265.5 117.5 265.7 144.7 265.8 144.9C266 145 271.3 145.2 277.7 145.1L289.2 145L289.4 89.5ZM337.7 144.4C338.2 142.9 338 84.1 337.4 82C336.5 78.9 334.3 76.1 331.4 74.5C328.8 73 328.6 73 321.2 73H313.7L313.6 108.5C313.6 128.1 313.6 144.3 313.7 144.6C313.9 145 316.7 145.2 325.7 145.2C335.9 145.2 337.5 145.1 337.7 144.4Z" fill="#305157"/>
</svg>
