<?xml version="1.0" encoding="utf-8"?>
<!-- Generator: Adobe Illustrator 19.0.0, SVG Export Plug-In . SVG Version: 6.00 Build 0)  -->
<svg version="1.1" id="Layer_1" xmlns="http://www.w3.org/2000/svg" xmlns:xlink="http://www.w3.org/1999/xlink" x="0px" y="0px"
	 viewBox="79 12 769 769" style="enable-background:new 79 12 769 769;" xml:space="preserve">
<style type="text/css">
	.st0{fill:#305157;}
	.st1{fill:#84A63D;}
</style>
<g>
	<path class="st0" d="M241.6,632.7c-4.9-1-8.3-2.9-11.1-6.1c-3.8-4.3-4-5.3-4-21v-13.3l6.4-2.4c3.5-1.3,6.6-2.3,6.9-2.3
		c0.4,0,0.6,3.3,0.5,14c-0.1,13.3-0.1,14,0.9,15c1.8,2,3.7,2.6,7.7,2.7c4.4,0,7.1-1,8-3c0.4-0.8,0.6-6.2,0.6-16.5
		c0-14.8,0-15.3,1-15.8c1.3-0.7,10.3-4,11.9-4.3l1.1-0.3v9.8c0,8.2,0.1,10,0.8,11.3c2.5,4.2,8.8,3.8,10.9-0.7
		c0.7-1.5,0.9-3.3,0.9-10.5v-8.8l2.6-1c7.4-2.9,10.8-4,11-3.4c0.1,0.3,0.2,5.5,0.3,11.5c0.1,7,0.3,11.5,0.7,12.3
		c0.8,1.7,3.7,3.5,5.6,3.5c1.8,0,4.5-1.5,5.4-3.1c0.5-0.8,0.8-4.3,0.9-11.3l0.3-10.2l5.8-2.2c3.2-1.2,6.3-2.3,6.9-2.5
		c1-0.3,1-0.2,1,11.7c0,12.8-0.4,15.8-2.3,20c-1.5,3.3-5.7,7.6-9.1,9.3c-6.6,3.3-15.1,2.8-20.5-1.4l-1.8-1.3l-2.6,1.8
		c-4.4,2.9-11,4-16.1,2.5c-0.9-0.3-1.1,0-1.4,1.2c-1,4.8-5.6,10.7-10.1,12.9C255.4,633.4,248.1,634.2,241.6,632.7L241.6,632.7z"/>
	<path class="st0" d="M343.6,616.8c-1.4-0.4-3.2-1.1-4-1.6c-2.5-1.5-5.6-4.9-7-7.4l-1.4-2.5l-0.1-26.6l-0.1-26.5l2.9-1.1
		c1.6-0.6,4.6-1.8,6.8-2.5l3.9-1.4V574c0,26.5,0,27,1,28.3l1,1.3h10.6c10.2,0,10.7,0,11.6-1c0.9-1,1-2.2,1.2-12.3l0.3-11.3l6.5-2.5
		c3.6-1.3,6.5-2.5,6.6-2.5c0,0,0.1,6.7,0.1,14.8v14.8h8.4c8,0,8.5,0,9.4-1s1-2.3,1.2-25.3l0.3-24.3l6.5-2.9l6.5-2.9l0.1,27.6
		c0.1,25.3,0.1,27.7,1,28.3c0.6,0.4,3.1,0.6,8.4,0.6c7.3,0,7.6,0,8.6-1.2c1.1-1.2,1.1-1.2,1.1-24.9c0-13,0.2-24,0.4-24.3
		c0.2-0.3,1.5-1,2.9-1.7c3.2-1.5,10.3-4.5,10.5-4.5c0.5,0,0.1,53.5-0.4,56.3c-0.9,4.8-3.6,8.8-8,11.5c-3.3,2-6.9,2.7-15.4,2.7
		c-8.3,0-11-0.4-14.4-2.1c-2-1-2.1-1-3.4-0.2c-3.3,2.2-5.6,2.3-34,2.3C351.6,617.4,345.8,617.3,343.6,616.8L343.6,616.8z"/>
	<path class="st0" d="M488.9,616.7c-5.2-1.3-8.6-3.6-11.6-8l-2-2.8l-0.1-11.2l-0.1-11.2l6.3-2c3.5-1.1,6.5-2,6.8-2s0.5,3.3,0.5,9.5
		c0,10.4,0.4,12.2,2.6,13.7c1.1,0.8,2.9,0.8,14.6,0.8c7.3,0,13.3-0.2,13.3-0.3c0-0.2-0.8-2.4-1.8-4.9c-3.9-9.7-2.3-18.3,4.2-22.5
		c3.2-2.1,20.3-9,20.7-8.3c0.3,0.6,2.9,7.5,7.3,19.8c2.8,7.7,6.8,18.9,8.8,24.5c2.2,6.2,2.6,5.8-5.6,5.6l-7.1-0.2l-1.4-4
		c-0.8-2.2-3-8.7-5-14.5c-4.6-13.7-4.4-13.3-5.4-13.3c-0.5,0-1.6,0.6-2.5,1.3c-1.3,1-1.5,1.7-1.5,3.2c0,1.7,2.8,9.2,8,21.5
		c0.9,2,1.7,4.3,1.8,4.9l0.3,1.1l-23.9,0C497,617.4,491.1,617.2,488.9,616.7L488.9,616.7z"/>
	<path class="st0" d="M574.2,615.7c-1.9-2.3-8.2-11.6-8.2-11.9c0-0.2,8.2-0.3,18.2-0.3c17,0,18.2,0,19.7-1c3.2-2,4.5-6.8,2.8-10.7
		c-1.8-4-2.3-4-17.9-4.3l-13.5-0.3l4.5-6.7l4.6-6.7l10.8,0.2l10.8,0.2l3.3,1.7c4.7,2.3,8,5.5,9.9,9.8c1.5,3.1,1.7,4,1.7,8.3
		c0,2.7-0.2,5.8-0.3,7.2l-0.4,2.3h9h9l-0.4-1.8c-0.2-1-0.4-4.2-0.3-6.9c0-4,0.3-5.5,1.2-7.8c2.3-5.7,7-10.1,12.8-12.1
		c2.2-0.7,4.4-0.8,13.7-0.9H676v6.3c0,3.5,0.2,6.2,0.5,6c0.2-0.2,1.8-3,3.3-6.3l3-6l2.2,0.3c5.7,0.8,11.6,5.3,14.5,11.2
		c1.7,3.5,1.9,4.3,2,8.7c0.2,2.8,0,6-0.3,7.3c-2,7.8-8.2,14-16,15.6c-1.8,0.4-18.4,0.5-56.1,0.5h-53.4L574.2,615.7L574.2,615.7z
		 M662.4,595.4l0.2-7.9h-3.2c-4.1,0-6.3,1.1-7.8,4c-0.7,1.2-1.2,3-1.2,4s0.5,2.8,1.2,4c1.5,3,3.7,4,7.6,3.9l3-0.2L662.4,595.4z
		 M683.7,602.8c2.7-1.1,4-3.4,4-7c0.1-5.6-2.8-8.5-8.5-8.2l-3,0.2l-0.2,7.9l-0.2,7.8h3C680.6,603.5,682.8,603.2,683.7,602.8
		L683.7,602.8z"/>
	<path class="st0" d="M374,570.6c-1-1-3.1-3.3-4.9-5.2l-3.1-3.3l4.7-4.8c2.5-2.7,5-4.8,5.4-4.8c0.8,0,9.9,9,9.9,9.8
		c0,0.5-9.5,10.3-10,10.2C375.9,572.5,375,571.6,374,570.6L374,570.6z"/>
	<path class="st0" d="M606.5,339.3v-12.8h-145h-145l0.1-69.6c0.2-78.2-0.1-71.4,4-79.8c4.3-8.6,13.4-15.9,23.4-18.7
		c1-0.3,6-0.6,11.3-0.8l9.5-0.4l0.3-9.8c0.4-10.8,0.8-12.9,4.4-19.8c2.7-5.1,9.1-11.4,14.5-14.2c2.2-1.2,4.3-2.1,4.6-2.1
		c0.4,0,0.5,23.2,0.5,83.3V278h-12h-12v-48.3v-48.3l-7.6,0.2c-6.7,0.1-7.9,0.3-9.7,1.3c-2.6,1.4-5.5,4.8-6.3,7.1
		c-0.3,1.1-0.5,20.4-0.4,57l0.1,55.3l144.8,0l144.8,0l0.2,24.9L631,352h-12.3h-12.3V339.3L606.5,339.3z"/>
	<path class="st0" d="M521.9,278.1L413.5,278v-12v-12h24h24v-60.3v-60.3h-12h-12v48.3V230h-12h-12v-60.6v-60.6l1.1,0.3
		c0.6,0.2,16.9,0.3,36.2,0.3H486l0.1,72.1l0.1,72.1H498h11.8l0.1-72.4L510,109h19.7c22.8,0.1,25.2,0.3,32.6,4
		c9.3,4.6,15.4,11.8,18.8,22.2c0.8,2.5,1.1,4.9,1.3,12.6l0.3,9.5l7.5,0.1c8.8,0.1,12.7,0.7,17.6,2.6c12.2,4.9,20.8,15.8,22.5,28.6
		c0.7,4.4,0.8,88.3,0.2,89.1C630.3,278.1,593.7,278.2,521.9,278.1L521.9,278.1z M557.9,198.3l0.1-55.5l-1.3-2.6
		c-0.7-1.4-2-3.2-3-3.9c-3.3-2.4-4.7-2.8-12.5-2.8H534v59.9c0,32.9,0.2,60.1,0.3,60.3c0.2,0.1,5.5,0.3,11.9,0.2l11.5-0.1
		L557.9,198.3z M606.2,253.2c0.5-1.5,0.3-60.3-0.3-62.4c-0.9-3.1-3.1-5.9-6-7.5c-2.6-1.5-2.8-1.5-10.2-1.5h-7.5l-0.1,35.5
		c0,19.6,0,35.8,0.1,36.1c0.2,0.4,3,0.6,12,0.6C604.4,254,606,253.9,606.2,253.2z"/>
</g>
<g>
	<path class="st1" d="M386.2,674.7c-0.3,0-1-0.3-1.8-0.4c-4.4-1-6.8-6.5-5.2-12c1.4-4.6,4.2-6.3,10.1-5.8c5,0.4,7.4,3.3,7.3,9
		c0,5.5-2.4,8.4-7.3,9C387.9,674.7,386.4,674.8,386.2,674.7z M390.2,669.4c1-1.3,1-6.3,0.2-7.5c-1.1-1.4-3.6-1.6-4.9-0.4
		c-1.5,1.5-1.6,6.5-0.2,8.2C386.5,670.9,389.3,670.8,390.2,669.4z"/>
	<path class="st1" d="M443.2,674.5c-3.1-0.3-5.9-2.3-6.7-4.8c-0.9-2.7-0.5-8.3,0.8-10c3.4-4.6,11-4.6,14.4,0c0.8,1,1,2.3,1.2,4.8
		l0.2,3.5h-4.8h-4.8l-1-1.5c-1.1-1.8-1.6-1-1,1.3c0.7,2.5,4.1,3.4,8.6,2.2c1.1-0.3,2-0.5,2.1-0.3c0.1,0.2-0.1,1.2-0.5,2.5l-0.6,2.2
		l-2.7,0.3C447,674.7,444.6,674.7,443.2,674.5L443.2,674.5z M448.5,663c0-1.3-1.9-2.5-3.7-2.5c-1.7,0-3.3,1.3-3.3,2.6
		c0,0.8,0.5,0.9,3.5,0.9C448.1,664,448.5,663.9,448.5,663z"/>
	<path class="st1" d="M534,674.5c-4.4-0.4-6.7-2.3-7.5-6.5c-1-4.5,0.8-8.9,4-10.5c2-1,7.2-1.2,9.2-0.4c1.1,0.4,1.3,0.8,1.3,2.8
		c0,2-0.1,2.3-0.8,2c-2.5-1-4.7-1.4-6-1c-2.7,1-3.4,6.5-1.1,8.8c1.2,1.2,4.4,1.3,6.5,0.2c1.5-0.8,1.5-0.8,1.3,0.4
		c-0.2,0.6-0.3,1.5-0.3,1.9C540.4,674.1,538.3,674.9,534,674.5L534,674.5z"/>
	<path class="st1" d="M549.5,674.5c-4-0.8-6-4-6-9c0-4.3,1.1-6.3,4-7.9c1.8-1,2.8-1.2,5.5-1c3.6,0.2,5.2,1,7.1,3.5
		c1.5,2,1.7,7,0.4,10C559,673.7,554.5,675.5,549.5,674.5L549.5,674.5z M554.8,669.5c0.7-0.8,1-1.8,1-4c0-2.5-0.2-3.2-1.2-4
		c-1.6-1.3-3.3-1.2-4.5,0.3c-1.6,2.1-1.3,7,0.6,8.3C551.8,670.8,553.8,670.5,554.8,669.5L554.8,669.5z"/>
	<path class="st1" d="M360.5,662.3V650h2.8h2.8l0,5.2c0,5.1,0,5.1,0.8,3.3c0.6-1.6,1-1.9,2.2-1.9c2,0,4.5,1.1,6,2.7
		c1.2,1.3,1.3,1.7,1.4,8.3l0.2,7h-3h-3v-6.2c0-6.8-0.1-7-2.9-7.6l-1.6-0.3v7v7h-2.8h-2.8L360.5,662.3L360.5,662.3z"/>
	<path class="st1" d="M403.8,673.9c-2.1-0.8-4.1-2.8-4.8-4.8c-0.3-1-0.5-3.1-0.4-4.8c0.1-2.5,0.5-3.5,1.5-5c1.8-2.3,3-2.9,6.6-3.3
		l3-0.3l0.1-2.8l0.1-2.9h2.7h2.8v12.3v12.3l-2.9-0.2l-2.9-0.2l0.1-1.6c0.3-2.2-0.5-2.1-1.6,0.1C407.4,674.7,406.5,674.8,403.8,673.9
		z M409.7,669.7c0.1-0.5,0.3-2.7,0.3-5c0-3.6-0.1-4.2-0.9-4.3c-1.8-0.3-3.8,0.3-4.5,1.5c-1,1.6-1,5.2,0,6.8c0.7,1,1.4,1.3,4.1,1.8
		C409.1,670.5,409.5,670.2,409.7,669.7L409.7,669.7z"/>
	<path class="st1" d="M421.2,673.7c-3-1.5-4.1-5.5-2.2-8.3c1.1-1.5,3.5-2.5,6.8-2.5c2.5,0,3-0.4,1.9-1.6c-1-1-5-1.3-6.8-0.3
		c-1.4,0.7-1.5,0.5-1.1-2c0.3-1.9,0.5-2.1,2.4-2.6c3.7-1,8.7,0.4,10.6,3c0.9,1.2,1,2.2,1,8.1v6.8h-2.5c-2.5,0-2.5,0-2.8-1.7
		l-0.3-1.7l-0.9,1.8c-0.8,1.7-1.1,1.8-2.8,1.8C423.6,674.5,422,674.2,421.2,673.7L421.2,673.7z M428.5,668.8c0-1.9-0.5-2.2-3.4-1.9
		c-1.8,0.2-2.4,1.2-1.6,2.7c0.4,0.7,1,1,2.8,1C428.5,670.5,428.5,670.5,428.5,668.8z"/>
	<path class="st1" d="M455.1,663.2l0.1-11.3l2.3-0.7c1.3-0.4,2.4-0.7,2.6-0.7c0.2,0,0.4,5.4,0.4,12v12h-2.8H455L455.1,663.2z"/>
	<path class="st1" d="M463,666.2v-8.4l2.8-0.8l2.8-0.8v1.4c0,1.8,0.8,1.8,1.6,0.1c0.6-1.2,1-1.4,2.4-1.3c2.5,0.3,4.6,1.6,5.6,3.6
		c1,2.1,1,2.3,1,9.2l0,5.4l-2.8-0.2l-2.9-0.2l0.1-5.6c0.1-6.7-0.5-8.3-3.1-8l-1.5,0.2l-0.1,6.9l-0.1,6.8h-2.7H463L463,666.2
		L463,666.2z"/>
	<path class="st1" d="M484.7,673.8c-2.2-1-3.2-2.7-3.2-5.3c0-3.6,2.6-5.5,7.5-5.5c1.9,0,2.5-0.2,2.5-0.8c0-1-2-1.8-4.3-1.8
		c-1,0-2.3,0.2-3,0.5c-1.5,0.5-1.5,0.3-1-2.5c0.3-1.3,0.6-1.7,2.4-2.1c3.7-1,8.3,0.3,10.3,2.8c1,1.2,1,2,1,8.3v7h-2.5
		c-2.5,0-2.5,0-2.6-1.6l-0.2-1.7l-1,1.6c-0.9,1.3-1.3,1.7-2.8,1.7C487,674.5,485.5,674.2,484.7,673.8L484.7,673.8z M491.4,668.6
		c-0.1-1.7-0.4-1.9-1.4-2c-1.9-0.1-3.5,0.7-3.5,1.7c0,1.4,1,2.1,3.1,2.1C491.6,670.5,491.6,670.5,491.4,668.6z"/>
	<path class="st1" d="M499.8,673.7c-0.1-0.5-0.3-1.4-0.3-2.2c0-1.3,0.1-1.3,2.9-1.3c2.4,0,2.9-0.2,3-0.9c0.1-0.5-0.4-1.2-1.5-1.8
		c-3.6-2-4.5-3-4.5-5.5c0-2.5,0.8-3.7,3.4-5c1.2-0.6,6.6-0.8,7.5-0.2c0.3,0.2,0.5,1.2,0.5,2.3v1.9l-3-0.3c-2.7-0.3-3-0.3-3,0.7
		c0,0.6,0.8,1.4,2,2.1c4.4,2.5,5.4,6.3,2.3,9.3c-1.6,1.7-1.9,1.7-5.5,1.7C500.9,674.5,500,674.3,499.8,673.7L499.8,673.7z"/>
	<path class="st1" d="M515.8,672l-2.4-2.5l2.6-2.5l2.5-2.5l2.6,2.5l2.6,2.5l-2.6,2.5c-1.5,1.4-2.7,2.5-2.8,2.5
		S517.1,673.3,515.8,672L515.8,672z"/>
	<path class="st1" d="M563.8,674.2c-0.1-0.3-0.3-4-0.2-8.3l0.1-8l2.7-0.9l2.6-0.9v1.8c0,1.8,0,1.8,0.9,0.8c0.4-0.6,1.1-1.5,1.3-1.9
		c0.7-1.2,3.5-0.3,5.6,1.8c1.9,1.8,1.7,1.9,3.4-1.3c1.1-2,5.8-0.5,7.5,2.5c0.8,1.3,1,2.6,1,8v6.5l-2.8,0.2l-2.9,0.2v-6
		c0-5.4-0.1-6.1-1-7c-0.5-0.5-1.5-1-2-0.8c-1,0.2-1,0.5-1,7l0.1,6.9l-2.9-0.2l-2.9-0.2l-0.1-5.3c0-2.9-0.1-5.7-0.1-6.1
		c-0.1-1.2-1.5-2.4-2.8-2.4h-1.2l-0.2,6.9l-0.2,6.8l-2.3,0.2C565.2,674.5,564,674.4,563.8,674.2L563.8,674.2z"/>
	<path class="st1" d="M395.8,519.2c-6.4-1.3-10.4-2.9-14.8-5.9c-5.2-3.6-10.3-9.5-12.5-14.6c-2.6-6-3-8-3.3-17.8l-0.3-9.4l-8.5-0.3
		c-10.4-0.3-12.6-0.8-19-3.9c-5.8-2.8-10.9-7.1-14.1-12c-2.2-3.3-4.9-9.3-5.7-12.9c-0.4-1.5-0.7-13.5-0.9-35.1l-0.3-32.8h-23.9
		l-23.9,0v-36.4V302h12h12l0.1,24.1l0.1,24.1l24.1,0.1l24.1,0.1v43.4c0,42.5,0,43.4,1,45.6c1.1,2.6,3,4.6,5.5,6.1
		c1.5,1,2.6,1.1,9.6,1.3l7.9,0.1v-48.3v-48.3h12h12l0.1,67.9l0.1,67.9l1,2c1.4,2.5,3.4,4.5,6,5.9c1.8,1,2.9,1,9.5,1.1h7.5l0.1-72.4
		l0.1-72.4h12h12V435v84.5l-20.4,0C405.9,519.4,396.3,519.3,395.8,519.2L395.8,519.2z"/>
	<path class="st1" d="M461.5,435v-84.5h12.3H486v72.3V495h12h12v-48.3v-48.3l12,0.1l12,0.1V446c0,26,0.2,47.7,0.3,48.1
		c0.3,0.7,1.4,0.8,7.5,0.8c6.6,0,7.5-0.1,9.6-1.2c2.9-1.5,4.3-2.9,5.5-5.8c1-2.3,1.1-2.9,1.1-69.9v-67.6h12.3h12.3v48.3v48.3
		l7.6-0.2c7-0.1,7.8-0.3,9.8-1.4c2.6-1.5,5.3-4.8,6-7.4c0.3-1.2,0.5-16.8,0.5-44.7v-42.9h12.3H631l-0.2,44.6c-0.2,50,0,48-3.8,55.6
		c-3.7,7.5-9.9,13.6-17.2,17c-6,2.8-8.8,3.3-18.4,3.6l-8.8,0.3l-0.3,9c-0.3,8.5-0.3,9.4-1.8,13.8c-2.1,6.2-4.5,10-9.1,14.5
		c-4.4,4.4-7.8,6.5-13.8,8.7l-4.4,1.5l-45.8,0.2l-45.9,0.2L461.5,435L461.5,435z"/>
	<path class="st1" d="M510.2,374.5c-0.1-0.1-0.2-5.6-0.2-12.1v-11.9h12h12l-0.1,12l-0.2,12l-11.7,0.1
		C515.7,374.7,510.3,374.6,510.2,374.5z"/>
</g>
</svg>
